<svg width="43" height="9" viewBox="0 0 43 9" fill="none" xmlns="http://www.w3.org/2000/svg">
<path d="M42.0458 6.75466L40.1769 6.75342H40.2419C40.2065 6.75342 40.1769 6.72801 40.1769 6.69841V1.4011C40.1769 0.587114 39.533 0.320281 38.6297 0.808546L27.7846 6.63627C27.3579 6.8653 27.215 7.12376 27.3183 7.31544C27.407 7.48001 27.6413 7.59483 28.1106 7.59483L38.1829 7.5956C38.2112 7.59746 38.2341 7.61435 38.2408 7.63713V8.38061C38.2408 8.41207 38.2691 8.43748 38.3029 8.43748H40.1141C40.1479 8.43748 40.1771 8.41207 40.1771 8.38061V7.65263C40.1771 7.62117 40.2067 7.59576 40.2405 7.59576H42.046C42.0816 7.59576 42.1111 7.57019 42.1111 7.53951V6.80936C42.111 6.78007 42.0814 6.75466 42.0458 6.75466ZM38.2424 6.69516C38.2424 6.72739 38.2132 6.75203 38.179 6.75203H29.7363C29.6674 6.75203 29.6315 6.73731 29.6217 6.71515C29.6114 6.67997 29.6339 6.6544 29.6835 6.62496L38.0864 2.0984C38.1452 2.06694 38.2424 2.07174 38.2424 2.17262V6.69516Z" fill="#C4C4C4"/>
<path d="M10.7052 4.79753H3.12054C2.41996 4.79753 1.93084 5.3157 1.93084 6.05732V8.38228C1.93084 8.41296 1.9025 8.43775 1.86744 8.43775H0.0642845C0.0293973 8.43775 0.000885461 8.41373 0.000885461 8.38228L0 6.05717C0 4.85874 0.925484 3.95581 2.1538 3.95581H10.0661C10.9142 3.95581 11.3162 3.42184 11.3162 2.68084C11.3162 1.93922 10.913 1.4054 10.0661 1.4054H0.0642845C0.0283348 1.4054 0 1.3806 0 1.35008V0.618998C0 0.589091 0.0283347 0.564453 0.0632219 0.564453H10.7052C12.4113 0.564453 13.246 1.48458 13.246 2.68254C13.246 3.87973 12.4113 4.79753 10.7052 4.79753Z" fill="#C4C4C4"/>
<path d="M28.0821 1.40344H22.8389C21.9921 1.40344 21.5897 1.93696 21.5897 2.67904V6.32143C21.5897 7.51955 20.7531 8.43719 19.0474 8.43719H12.8798C12.8447 8.43719 12.8164 8.41255 12.8164 8.38172V7.65064C12.8164 7.61934 12.8447 7.59516 12.8786 7.59516H18.409C19.2565 7.59516 19.6591 7.06181 19.6591 6.3205V2.68059C19.6591 1.48371 20.4941 0.563275 22.1998 0.563275L28.0821 0.5625C28.1159 0.5625 28.1443 0.587138 28.1443 0.617819V1.3489C28.1443 1.37865 28.1168 1.40344 28.0821 1.40344Z" fill="#C4C4C4"/>
</svg>