<svg width="81" height="16" viewBox="0 0 81 16" fill="none" xmlns="http://www.w3.org/2000/svg">
<path d="M51.3875 12.9249L48.3215 8.76387L45.259 12.9249H43.9973L47.6831 7.8975L44.3169 3.32764H45.5786L48.3215 7.05469L51.0645 3.32764H52.3253L48.9616 7.89666L52.6483 12.9249H51.3875ZM27.4968 12.9233L23.8068 7.89666L27.173 3.32764H25.9113L23.1675 7.05553L20.4263 3.32764H19.1679L22.5325 7.89666L18.8433 12.9233H20.1066L23.1692 8.76387L26.2343 12.9233H27.4968Z" fill="#C4C4C4"/>
<path d="M34.5129 8.2599C34.3228 8.09786 34.111 7.96311 33.8837 7.85952C34.2325 7.67418 34.5242 7.39734 34.7275 7.05873C34.9308 6.72011 35.0381 6.33251 35.0377 5.93754C35.0377 5.32351 34.8115 3.32667 31.918 3.32667H28.021V7.46419H26.7232C26.5549 7.68372 26.1722 8.21111 26.0267 8.42728H28.021V12.9231L31.9188 12.924C34.0301 12.924 35.3414 11.8524 35.3414 10.1222C35.3414 9.36683 35.0562 8.72504 34.5129 8.2599ZM29.0985 4.32846H31.9188C32.6817 4.32846 33.9602 4.51855 33.9602 5.85342C33.9602 6.86278 33.2158 7.46419 31.9188 7.46419H29.0985V4.32846ZM31.918 11.923H29.0977V8.42981H31.918C32.9871 8.42981 34.2664 8.72504 34.2664 10.1011C34.2664 11.6858 32.7953 11.923 31.918 11.923ZM40.4109 3.10629C37.7151 3.10629 35.8309 5.1679 35.8309 8.12027C35.8309 11.0768 37.7151 13.1368 40.4109 13.1368C43.1042 13.1368 44.9833 11.0768 44.9833 8.12027C44.9833 5.1679 43.1042 3.10629 40.4109 3.10629ZM40.4109 12.1215C38.3568 12.1215 36.9177 10.4754 36.9177 8.12027C36.9177 5.76511 38.3568 4.11985 40.4109 4.11985C42.4616 4.11985 43.8923 5.76511 43.8923 8.12027C43.8923 10.4754 42.4616 12.1215 40.4109 12.1215ZM2.39007 2.30049L2.3825 2.30722V2.30806C1.62769 3.05121 1.02851 3.93729 0.61995 4.91457C0.211389 5.89186 0.00163491 6.94074 0.00293711 7.99999C0.000547028 9.75106 0.575233 11.4541 1.6381 12.8457C1.64903 12.8592 1.66585 12.8668 1.68099 12.8592C1.69529 12.8508 1.69613 12.8331 1.69025 12.818C1.08043 10.9322 4.19766 6.36147 5.80843 4.44537C5.81347 4.43864 5.8202 4.43107 5.8202 4.42182C5.8202 4.41089 5.81263 4.40247 5.80506 4.39575C3.09578 1.69908 2.3724 2.31563 2.3825 2.30722L2.39007 2.30049ZM13.6158 2.30049L13.6234 2.30722V2.30806C14.3781 3.05122 14.9772 3.93733 15.3856 4.91462C15.794 5.89191 16.0036 6.94079 16.0021 7.99999C16.0045 9.75106 15.4298 11.4541 14.3669 12.8457C14.3568 12.8592 14.3392 12.8668 14.324 12.8592C14.3106 12.8508 14.3097 12.8331 14.3148 12.818C14.9246 10.9322 11.8099 6.3581 10.2 4.44117C10.1941 4.43444 10.1882 4.42687 10.1882 4.41846C10.1882 4.40668 10.1949 4.39827 10.2033 4.39154C12.9135 1.69488 13.6318 2.31563 13.6225 2.30722L13.6158 2.30049ZM8.00294 0C9.61707 0 10.9452 0.442434 12.1699 1.17085C12.185 1.17842 12.1892 1.19525 12.1834 1.21039C12.1775 1.22469 12.1606 1.22805 12.1447 1.22384C10.5961 0.889075 8.24182 2.22731 8.01976 2.36105C8.01471 2.36442 8.00967 2.36778 8.00294 2.36778C7.99537 2.36778 7.99032 2.36442 7.98527 2.36105C7.3948 2.02208 5.21879 0.881504 3.84859 1.23226C3.83345 1.23562 3.81663 1.2331 3.8099 1.21796C3.80703 1.21085 3.80681 1.20294 3.80928 1.19569C3.81175 1.18843 3.81674 1.1823 3.82336 1.17842C5.04804 0.442434 6.39301 0 8.00294 0ZM8.00294 6.41614C8.01219 6.41614 8.02228 6.42371 8.02817 6.42876C10.422 8.24896 14.5192 12.749 13.2684 14.0216L13.2701 14.02L13.2693 14.0216H13.2676C11.8115 15.2997 9.93953 16.0033 8.0021 16.0008C6.06444 16.0031 4.19229 15.2996 2.73577 14.0216L2.73409 14.02L2.73577 14.0216C1.48753 12.749 5.58384 8.24896 7.97518 6.42876C7.98191 6.42371 7.99284 6.41614 8.00294 6.41614ZM71.2728 3.32751V11.203L65.4715 3.32162L64.5202 3.31994V12.9088H65.5885V5.20744L71.2711 12.9147L72.3419 12.9164V3.32751H71.2728ZM58.9747 3.10461C56.2788 3.10461 54.3939 5.16706 54.3939 8.11859C54.3939 11.0752 56.2788 13.1385 58.9747 13.1385C61.668 13.1385 63.547 11.0752 63.547 8.11859C63.547 5.1679 61.668 3.10461 58.9747 3.10461ZM58.9747 12.1215C56.9206 12.1215 55.4814 10.4754 55.4814 8.11859C55.4814 5.76426 56.9206 4.11817 58.9747 4.11817C61.0253 4.11817 62.4561 5.76426 62.4561 8.11859C62.4561 10.4754 61.0253 12.1215 58.9747 12.1215ZM74.6155 11.9777V8.42981H79.8953V7.4911H74.6155V4.25864H80.2536V3.32078H73.5414V12.9164H80.32V11.9777H74.6155Z" fill="#C4C4C4"/>
</svg>