<svg width="79" height="126" viewBox="0 0 79 126" fill="none" xmlns="http://www.w3.org/2000/svg">
<path fill-rule="evenodd" clip-rule="evenodd" d="M23.4792 46.041L45.9583 23.5205L45.9583 1.00006L23.4792 1.00006L0.999999 23.5205L23.4792 46.041Z" fill="#1B1D33" stroke="#1B1D33" stroke-width="0.5" stroke-miterlimit="10" stroke-linejoin="round"/>
<path fill-rule="evenodd" clip-rule="evenodd" d="M68.166 46.0411L68.166 23.5206L45.9577 23.5206L23.4785 46.0411L45.9577 68.5615L68.166 46.0411Z" fill="#1B1D33" stroke="#1B1D33" stroke-width="0.5" stroke-miterlimit="10" stroke-linejoin="round"/>
<path fill-rule="evenodd" clip-rule="evenodd" d="M68.1673 158.644L90.6465 136.123L90.6465 113.603L90.6465 91.0821L90.6465 68.5616L90.6465 46.0412L68.1673 46.0412L45.959 68.5616L68.1673 158.644Z" fill="#1B1D33" stroke="#1B1D33" stroke-width="0.5" stroke-miterlimit="10" stroke-linejoin="round"/>
<path d="M0.999999 23.5205L1 46.041L23.4792 46.041L23.4792 23.5205L0.999999 23.5205Z" fill="#5E31A7" stroke="#1B1D33" stroke-width="0.5" stroke-miterlimit="10" stroke-linejoin="round"/>
<path d="M23.4785 46.041L23.4785 68.5615L45.9577 68.5615L45.9577 46.041L23.4785 46.041Z" fill="#5E31A7" stroke="#1B1D33" stroke-width="0.5" stroke-miterlimit="10" stroke-linejoin="round"/>
<path fill-rule="evenodd" clip-rule="evenodd" d="M45.959 113.603L45.959 136.123L45.959 158.644L68.1673 158.644L68.1673 136.123L68.1673 113.603L68.1673 91.0821L68.1673 68.5616L45.959 68.5616L45.959 91.0821L45.959 113.603Z" fill="#5E31A7" stroke="#1B1D33" stroke-width="0.5" stroke-miterlimit="10" stroke-linejoin="round"/>
</svg>
