<svg width="24" height="24" viewBox="0 0 24 24" fill="none" xmlns="http://www.w3.org/2000/svg">
    <path d="M10.4082 19.8155C12.4957 19.8151 14.5229 19.1163 16.1673 17.8304L21.3371 23L23 21.3372L17.8302 16.1676C19.1167 14.5232 19.816 12.4956 19.8165 10.4077C19.8165 5.22055 15.5957 1 10.4082 1C5.22077 1 1 5.22055 1 10.4077C1 15.5949 5.22077 19.8155 10.4082 19.8155ZM10.4082 3.35193C14.2997 3.35193 17.4644 6.51646 17.4644 10.4077C17.4644 14.299 14.2997 17.4635 10.4082 17.4635C6.51676 17.4635 3.35206 14.299 3.35206 10.4077C3.35206 6.51646 6.51676 3.35193 10.4082 3.35193Z" fill="white"></path>
</svg>