<svg width="42" height="9" viewBox="0 0 42 9" fill="none" xmlns="http://www.w3.org/2000/svg">
<path d="M2.84421 0.0529432C1.95297 0.212289 1.2359 0.871913 1.00985 1.73908C0.928331 2.05221 0.922755 2.23565 0.932024 4.66479C0.937601 6.89568 0.939439 6.94757 0.976501 7.11987C1.18216 8.04819 1.84181 8.70966 2.77937 8.92832C2.90166 8.95611 3.0573 8.96166 4.05972 8.96722C5.09734 8.97464 5.20481 8.97278 5.2326 8.94498C5.2604 8.91718 5.26224 8.55958 5.26224 4.50545C5.26224 1.50005 5.25669 0.0844316 5.24371 0.0585012C5.22518 0.0251474 5.1937 0.0232821 4.10789 0.0251436C3.22592 0.0269976 2.96094 0.0325508 2.84421 0.0529432ZM4.52108 4.49989V8.25386L3.76695 8.2446C3.07211 8.23718 2.998 8.23348 2.85903 8.19827C2.26241 8.04449 1.81956 7.58497 1.69541 6.98647C1.65464 6.79933 1.65464 2.18934 1.69357 2.0059C1.80474 1.48524 2.16606 1.05352 2.65337 0.858954C2.89795 0.760739 3.01097 0.749634 3.80401 0.747781L4.52108 0.745917V4.49989H4.52108Z" fill="#C4C4C4"/>
<path d="M3.0036 1.87832C2.88685 1.90053 2.70898 1.9895 2.61449 2.07287C2.41994 2.24148 2.32358 2.48051 2.3384 2.76214C2.34581 2.90851 2.35508 2.94743 2.41436 3.06601C2.50145 3.24575 2.63301 3.3773 2.81274 3.46624C2.93688 3.52739 2.96839 3.53479 3.12959 3.54035C3.27596 3.54593 3.32785 3.54035 3.42605 3.507C3.82814 3.37175 4.07086 2.98079 4.0023 2.58055C3.92263 2.10435 3.47051 1.78567 3.0036 1.87832Z" fill="#C4C4C4"/>
<path d="M6.16434 0.036521C6.15694 0.0420818 6.15137 2.05062 6.15137 4.50015C6.15137 8.54131 6.15323 8.9508 6.18103 8.96192C6.23106 8.98045 7.6689 8.97304 7.84677 8.95451C8.59905 8.86928 9.26239 8.41161 9.62371 7.7316C9.67003 7.6445 9.73117 7.49813 9.76267 7.40734C9.8794 7.05899 9.8757 7.15164 9.8757 4.48902C9.8757 2.36374 9.872 2.04691 9.84606 1.91166C9.66261 0.946282 8.92703 0.218102 7.95982 0.0513325C7.83012 0.0291023 7.63 0.0235415 6.98518 0.0235415C6.54047 0.0235491 6.1699 0.0291052 6.16434 0.036521ZM8.14323 4.07212C8.43229 4.14811 8.66946 4.36859 8.76582 4.65024C8.82695 4.82442 8.82511 5.08011 8.76395 5.23946C8.65093 5.53221 8.42859 5.73788 8.14323 5.81385C7.68001 5.93429 7.18714 5.65451 7.05189 5.19499C7.01112 5.05416 7.01297 4.81699 7.05929 4.67247C7.19826 4.21851 7.68001 3.95169 8.14323 4.07212Z" fill="#C4C4C4"/>
<path d="M40.0286 0.0520978C39.3669 0.269816 38.9741 0.905959 39.0851 1.59759C39.1534 2.04157 39.4096 2.39166 39.8023 2.59233C40.336 2.85704 40.9038 2.7887 41.3307 2.40447C41.6509 2.11416 41.7875 1.81106 41.7875 1.37984C41.7875 0.974254 41.668 0.67115 41.399 0.402199C41.0617 0.0648918 40.4555 -0.0887861 40.0286 0.0520978ZM40.7842 0.675395C41.0404 0.807768 41.1813 1.02124 41.2027 1.31154C41.2283 1.69153 41.066 1.96474 40.7287 2.10561C40.1567 2.34472 39.5077 1.79395 39.67 1.20055C39.7383 0.935842 39.8535 0.786423 40.067 0.679689C40.2976 0.568666 40.5665 0.564418 40.7842 0.675395Z" fill="#C4C4C4"/>
<path d="M11.4111 1.37985V2.68628L11.6801 2.67348L11.9448 2.66064L11.9662 1.83667L11.9875 1.0127L12.6065 1.84521L13.2256 2.68198L13.4818 2.67347L13.7379 2.66063V1.37984V0.0990546L13.4732 0.0862546L13.2043 0.0734546V0.914515V1.75984L12.5767 0.918779L11.9448 0.0777187H11.6801H11.4111V1.37985H11.4111Z" fill="#C4C4C4"/>
<path d="M15.6797 1.38V2.68213H15.9572H16.2347V1.38V0.0778699H15.9572H15.6797V1.38Z" fill="#C4C4C4"/>
<path d="M18.1785 0.13325C18.1657 0.163095 18.1614 0.74375 18.1657 1.42255L18.1785 2.66064L18.4474 2.67348L18.7121 2.68628V1.82388V0.957216L19.3525 1.81963L19.9929 2.68199H20.2491H20.5052V1.37985V0.0777261H20.2277H19.9502L19.9417 0.897436L19.9289 1.71715L19.3141 0.897436L18.7036 0.0777261H18.4517C18.2852 0.0777185 18.1912 0.0948172 18.1785 0.13325Z" fill="#C4C4C4"/>
<path d="M22.3277 0.107749C22.3107 0.12055 22.2979 0.24863 22.2979 0.385262V0.632859H22.7248H23.1517V1.6575V2.68213H23.4292H23.7067V1.6575V0.632859H24.1123H24.5179V0.355361V0.0778551H23.4378C22.8401 0.0778551 22.3405 0.0906892 22.3277 0.107749Z" fill="#C4C4C4"/>
<path d="M26.3965 1.38V2.68213H27.3998H28.4031V2.42597V2.16982H27.6559H26.9088V1.87096V1.57211H27.5919H28.275V1.3373V1.1025H27.5919H26.9088V0.846342V0.590187L27.6474 0.581689L28.3817 0.568844L28.3946 0.321233L28.4074 0.0778773H27.3998H26.3965V1.38H26.3965Z" fill="#C4C4C4"/>
<path d="M30.5163 0.13325C30.5035 0.163095 30.4993 0.74375 30.5035 1.42255L30.5163 2.66064L30.7853 2.67348L31.05 2.68628V1.81963V0.957216L31.6904 1.81963L32.3308 2.68199H32.5869H32.8431V1.37985V0.0777261H32.5656H32.2881L32.2796 0.897436L32.2668 1.71715L31.652 0.897436L31.0415 0.0777261H30.7896C30.6231 0.0777185 30.5292 0.0948172 30.5163 0.13325Z" fill="#C4C4C4"/>
<path d="M35.0205 1.37575V2.68213H35.5884C36.2458 2.68213 36.5575 2.61809 36.8393 2.42172C37.6718 1.84962 37.5437 0.624368 36.6087 0.193136C36.4337 0.11205 36.3141 0.0991988 35.7164 0.0863981L35.0205 0.0693491V1.37575ZM36.4166 0.714005C36.7752 0.88052 36.9289 1.3373 36.7496 1.71729C36.613 1.99904 36.3355 2.12713 35.8488 2.12713H35.5328V1.38V0.632866H35.8872C36.1391 0.632866 36.2885 0.658512 36.4166 0.714005Z" fill="#C4C4C4"/>
<path d="M33.7311 3.83906C33.1377 3.9159 32.6082 4.19341 32.1728 4.65877C31.2207 5.6834 31.2506 7.2417 32.2454 8.23214C32.6125 8.60357 32.9455 8.79569 33.4237 8.91522C34.2092 9.11589 35.0033 8.95791 35.6523 8.46695C35.9041 8.27913 36.2329 7.91193 36.2073 7.8479C36.1987 7.83085 36.0237 7.67287 35.8145 7.48931L35.4388 7.16056L35.3236 7.30998C34.7728 8.03151 33.6585 8.10835 33.0138 7.46366C32.9199 7.36977 32.7919 7.19471 32.7278 7.07092C32.6211 6.86596 32.6083 6.80192 32.6083 6.41769C32.6083 6.05055 32.6211 5.96091 32.715 5.77729C33.0309 5.1241 33.8122 4.76977 34.491 4.96613C34.807 5.05581 35.1058 5.24363 35.2937 5.46994L35.4388 5.64496L35.6267 5.49128C35.7292 5.41015 35.9085 5.25218 36.0237 5.14974L36.2372 4.95762L36.0707 4.75267C35.5157 4.07812 34.6191 3.72803 33.7311 3.83906Z" fill="#C4C4C4"/>
<path d="M12.6152 4.00554C11.5991 4.27454 11.074 4.95333 11.3003 5.7218C11.4625 6.28961 12.0004 6.56712 13.4306 6.82327C14.3912 6.99404 14.673 7.13496 14.673 7.43807C14.673 7.64728 14.5492 7.80096 14.2802 7.92478C14.0497 8.03152 13.9985 8.04002 13.4178 8.04002C12.7305 8.04002 12.4615 7.98453 11.9535 7.75401C11.7955 7.68143 11.6589 7.63019 11.6504 7.63873C11.5991 7.70278 11.1936 8.45844 11.2064 8.46695C11.249 8.51394 11.9321 8.76154 12.2139 8.83839C12.6835 8.96221 13.6868 8.9921 14.1991 8.89818C15.1555 8.71885 15.6293 8.27913 15.672 7.54055C15.7062 6.93001 15.5354 6.6141 15.0103 6.34085C14.6346 6.14449 14.3101 6.05055 13.4819 5.88403C12.7604 5.74315 12.5554 5.67486 12.406 5.53399C12.2737 5.41016 12.2737 5.18814 12.4103 5.05152C12.7177 4.74417 13.8192 4.73132 14.673 5.03017C14.8139 5.07716 14.942 5.10276 14.9591 5.08571C14.9889 5.05152 15.2963 4.33004 15.2963 4.28735C15.2963 4.2489 14.6431 4.05678 14.276 3.9885C13.7807 3.89456 13.0122 3.9031 12.6152 4.00554Z" fill="#C4C4C4"/>
<path d="M16.2523 4.03553C16.2651 4.07822 16.564 5.1413 16.9183 6.39644C17.2726 7.65163 17.5715 8.7147 17.5843 8.75309C17.6057 8.82143 17.674 8.82994 18.1991 8.82994H18.7925L18.8395 8.66771C19.2622 7.1393 19.6891 5.70485 19.7104 5.75604C19.7232 5.79023 19.9239 6.49036 20.1544 7.31433L20.5728 8.80859L21.1705 8.82143L21.7682 8.83423L22.447 6.45197C22.8185 5.14129 23.1301 4.04406 23.1429 4.01417C23.1558 3.97578 23.0362 3.96294 22.6221 3.96294H22.0884L22.0286 4.1636C21.9945 4.27888 21.7896 5.04735 21.5718 5.87132C21.3498 6.69959 21.162 7.37838 21.1449 7.37838C21.1321 7.37838 20.9314 6.72947 20.7009 5.93536C20.4704 5.14554 20.2441 4.37707 20.1971 4.22764L20.116 3.95869L19.6805 3.97149L19.2451 3.98428L18.7455 5.692C18.4723 6.63124 18.2461 7.40827 18.2418 7.42107C18.2375 7.43391 18.0454 6.74227 17.8191 5.88412C17.5886 5.02601 17.3751 4.24474 17.3495 4.14225L17.2983 3.96294H16.7646C16.2737 3.96294 16.231 3.96724 16.2523 4.03553Z" fill="#C4C4C4"/>
<path d="M24.3477 6.39634V8.82983H24.9027H25.4577L25.4491 6.40488L25.4363 3.98418L24.8941 3.97138L24.3477 3.95858V6.39634Z" fill="#C4C4C4"/>
<path d="M26.6094 4.49649V5.03015H27.3779H28.1463V6.93V8.82983H28.68H29.2136V6.93V5.03015L29.9736 5.02166L30.7292 5.00881V4.49649V3.98418L28.6715 3.97138L26.6094 3.96283V4.49649H26.6094Z" fill="#C4C4C4"/>
<path d="M37.3262 6.39634V8.82983H37.8385H38.3508V7.86924V6.90865H39.4822H40.6135V7.86924V8.82983H41.1258H41.6381L41.6296 6.40488L41.6168 3.98418L41.1173 3.97138L40.6135 3.95858V4.92342V5.88401H39.4822H38.3508V4.92342V3.96283H37.8385H37.3262V6.39634Z" fill="#C4C4C4"/>
</svg>