<svg width="630" height="530" viewBox="0 0 630 530" fill="none" xmlns="http://www.w3.org/2000/svg">
<mask id="mask0" mask-type="alpha" maskUnits="userSpaceOnUse" x="0" y="0" width="630" height="530">
<rect width="630" height="530" rx="8" fill="#1F244A"/>
</mask>
<g mask="url(#mask0)">
<path fill-rule="evenodd" clip-rule="evenodd" d="M602.64 449.233V476.192H598.495H575.281H547.921H520.561H493.202H465.842H438.759H438.482H411.399V449.233L384.039 422V449.233H356.68H329.32H301.961H274.601H247.241H220.158H192.798H165.439H138.079V476.192H110.719V503.425V530.383H83.3597L56 557.617L83.3597 584.575H110.719L83.3597 611.808L110.719 638.767H138.079L165.439 666H520.561V638.767H547.921V611.808H602.64V584.575V530.383H630V476.192L602.64 449.233Z" fill="#1C1E32" stroke="#1C1E32" stroke-width="0.5" stroke-miterlimit="10" stroke-linejoin="round"/>
<path fill-rule="evenodd" clip-rule="evenodd" d="M438.31 449.263H410.983H383.655V422H110.655V449.263H83.3276V503.513H56V557.763H83.3276V612.013H137.983V639H165.31H192.638H219.966H247.293H274.345H301.672H329H356.328H383.655H410.983H438.31H465.362H492.69V612.013H520.017V584.75H547.345H574.672V503.513H602V449.263H438.31Z" fill="#49B749" stroke="#1C1E32" stroke-width="0.5" stroke-miterlimit="10" stroke-linejoin="round"/>
<path fill-rule="evenodd" clip-rule="evenodd" d="M371.917 55.7083V46H420.458V55.7083H391.333H371.917Z" fill="black"/>
<path fill-rule="evenodd" clip-rule="evenodd" d="M362.208 65.4167V55.7084H371.917V65.4167H362.208Z" fill="black"/>
<path fill-rule="evenodd" clip-rule="evenodd" d="M420.458 55.7084H430.167V65.4167H420.458V55.7084Z" fill="black"/>
<path fill-rule="evenodd" clip-rule="evenodd" d="M3 65.4166H12.7083H22.4167H32.125H41.8333H51.5417V75.125H32.125H22.4167H12.7083V84.8333V94.5416H3V65.4166Z" fill="black"/>
<path fill-rule="evenodd" clip-rule="evenodd" d="M362.209 65.4166V75.125H371.917V84.8333H362.209V94.5416V104.25V123.667H333.083V113.958H342.792H352.5V104.25V94.5416V84.8333V75.125V65.4166H362.209Z" fill="black"/>
<path fill-rule="evenodd" clip-rule="evenodd" d="M371.917 75.125V65.4166H381.625H391.333V75.125H371.917Z" fill="black"/>
<path fill-rule="evenodd" clip-rule="evenodd" d="M430.167 65.4166H439.875V75.125V84.8333H449.583H459.292V94.5416H449.583H439.875V104.25H449.583H459.292V94.5416H469V113.958H459.292V123.667V133.375H449.583H439.875V123.667H449.583V113.958H439.875V123.667H430.167V113.958V104.25H420.458H410.75V113.958H401.042V104.25H391.333V94.5416H420.458H430.167V84.8333H420.458H401.042H391.333V75.125H410.75H420.458H430.167V65.4166Z" fill="black"/>
<path fill-rule="evenodd" clip-rule="evenodd" d="M51.5415 75.125H61.2498H70.9582V84.8333H61.2498H51.5415V75.125Z" fill="black"/>
<path fill-rule="evenodd" clip-rule="evenodd" d="M70.9583 84.8334H80.6667H90.375H100.083V94.5417H90.375H80.6667V104.25V113.958V123.667H90.375H100.083V133.375H70.9583V123.667V113.958H61.25V104.25H70.9583V94.5417V84.8334Z" fill="black"/>
<path fill-rule="evenodd" clip-rule="evenodd" d="M371.917 84.8334H391.333V94.5417H381.625H371.917V84.8334Z" fill="black"/>
<path fill-rule="evenodd" clip-rule="evenodd" d="M12.7085 94.5416H22.4168H32.1252H41.8335H51.5418H61.2502V104.25H22.4168H12.7085V94.5416Z" fill="black"/>
<path fill-rule="evenodd" clip-rule="evenodd" d="M100.083 94.5416H109.792H119.5V104.25H109.792H100.083V94.5416Z" fill="black"/>
<path fill-rule="evenodd" clip-rule="evenodd" d="M119.5 104.25H129.208H138.917H148.625V113.958H138.917H129.208H119.5V104.25Z" fill="black"/>
<path fill-rule="evenodd" clip-rule="evenodd" d="M148.625 113.958H158.333H168.042V123.667H158.333H148.625V113.958Z" fill="black"/>
<path fill-rule="evenodd" clip-rule="evenodd" d="M410.75 123.667V113.958H420.458V123.667H410.75Z" fill="black"/>
<path fill-rule="evenodd" clip-rule="evenodd" d="M168.042 123.667H177.75H187.458V133.375H177.75H168.042V123.667Z" fill="black"/>
<path fill-rule="evenodd" clip-rule="evenodd" d="M313.667 133.375V123.667H323.375H333.083V133.375H323.375H313.667Z" fill="black"/>
<path fill-rule="evenodd" clip-rule="evenodd" d="M362.208 133.375V123.667H371.917V133.375H362.208Z" fill="black"/>
<path fill-rule="evenodd" clip-rule="evenodd" d="M410.75 123.667V133.375H420.458V152.792H410.75V143.083H401.041H391.333V152.792H381.625V143.083H371.917V133.375H381.625H391.333H401.041V123.667H410.75Z" fill="black"/>
<path fill-rule="evenodd" clip-rule="evenodd" d="M420.458 133.375V123.667H430.167V133.375H420.458Z" fill="black"/>
<path fill-rule="evenodd" clip-rule="evenodd" d="M100.083 133.375H109.792H119.5V143.083H109.792H100.083V133.375Z" fill="black"/>
<path fill-rule="evenodd" clip-rule="evenodd" d="M187.458 133.375H197.167H206.875V143.083H197.167H187.458V133.375Z" fill="black"/>
<path fill-rule="evenodd" clip-rule="evenodd" d="M294.25 143.083V133.375H303.958H313.667V143.083H303.958H294.25Z" fill="black"/>
<path fill-rule="evenodd" clip-rule="evenodd" d="M342.792 143.083V133.375H352.5H362.208V143.083H342.792Z" fill="black"/>
<path fill-rule="evenodd" clip-rule="evenodd" d="M119.5 143.083H129.208H138.917V152.792H129.208H119.5V143.083Z" fill="black"/>
<path fill-rule="evenodd" clip-rule="evenodd" d="M206.875 143.083H216.583H226.292V152.792H216.583H206.875V143.083Z" fill="black"/>
<path fill-rule="evenodd" clip-rule="evenodd" d="M274.833 152.792V143.083H284.542H294.25V152.792H274.833Z" fill="black"/>
<path fill-rule="evenodd" clip-rule="evenodd" d="M323.375 152.792V143.083H333.083H342.792V152.792V162.5H352.5V172.208V181.917H362.208H371.917V191.625V201.333H381.625V211.042H371.917V220.75V230.458H362.208V220.75V211.042V201.333V191.625H352.5H342.792V201.333V211.042V220.75V230.458V259.583H333.083V249.875V240.167H323.375V230.458H333.083V220.75V211.042V201.333V191.625V181.917H342.792V172.208H333.083V162.5V152.792H323.375Z" fill="black"/>
<path fill-rule="evenodd" clip-rule="evenodd" d="M362.208 143.083H371.917V152.792H362.208V143.083Z" fill="black"/>
<path fill-rule="evenodd" clip-rule="evenodd" d="M138.917 152.792H148.625H158.333V162.5H148.625H138.917V152.792Z" fill="black"/>
<path fill-rule="evenodd" clip-rule="evenodd" d="M226.292 152.792H236H245.708V162.5H236H226.292V152.792Z" fill="black"/>
<path fill-rule="evenodd" clip-rule="evenodd" d="M274.833 152.792V162.5H284.542H294.25V172.208H284.542V181.917H274.833V172.208H265.125V181.917H255.417V172.208H245.708V162.5H255.417V152.792H265.125H274.833Z" fill="black"/>
<path fill-rule="evenodd" clip-rule="evenodd" d="M294.25 162.5V152.792H323.375V162.5H294.25Z" fill="black"/>
<path fill-rule="evenodd" clip-rule="evenodd" d="M371.917 152.792H381.625V162.5V172.208V181.917H371.917V152.792Z" fill="black"/>
<path fill-rule="evenodd" clip-rule="evenodd" d="M420.458 152.792H430.167V162.5V172.208H420.458V162.5V152.792Z" fill="black"/>
<path fill-rule="evenodd" clip-rule="evenodd" d="M158.333 162.5H168.042V172.208H158.333V162.5Z" fill="black"/>
<path fill-rule="evenodd" clip-rule="evenodd" d="M168.042 172.208H177.75V181.917H168.042V172.208Z" fill="black"/>
<path fill-rule="evenodd" clip-rule="evenodd" d="M401.042 181.917V172.208H410.75V181.917H401.042Z" fill="black"/>
<path fill-rule="evenodd" clip-rule="evenodd" d="M430.167 172.208H439.875V181.917V191.625V201.333H430.167V172.208Z" fill="black"/>
<path fill-rule="evenodd" clip-rule="evenodd" d="M177.75 181.917H187.458H197.167V191.625H187.458H177.75V181.917Z" fill="black"/>
<path fill-rule="evenodd" clip-rule="evenodd" d="M245.708 191.625V181.917H255.417V191.625H245.708Z" fill="black"/>
<path fill-rule="evenodd" clip-rule="evenodd" d="M265.125 181.917H274.833V201.333H265.125V181.917Z" fill="black"/>
<path fill-rule="evenodd" clip-rule="evenodd" d="M284.542 181.917H294.25V191.625V201.333H284.542V181.917Z" fill="black"/>
<path fill-rule="evenodd" clip-rule="evenodd" d="M391.333 191.625V181.917H401.042V191.625H391.333Z" fill="black"/>
<path fill-rule="evenodd" clip-rule="evenodd" d="M197.167 191.625H206.875V201.333H197.167V191.625Z" fill="black"/>
<path fill-rule="evenodd" clip-rule="evenodd" d="M245.708 191.625V220.75H236V211.042V201.333V191.625H245.708Z" fill="black"/>
<path fill-rule="evenodd" clip-rule="evenodd" d="M381.625 201.333V191.625H391.333V201.333H381.625Z" fill="black"/>
<path fill-rule="evenodd" clip-rule="evenodd" d="M206.875 201.333H216.583V211.042H206.875V201.333Z" fill="black"/>
<path fill-rule="evenodd" clip-rule="evenodd" d="M265.125 201.333V220.75H255.417V211.042V201.333H265.125Z" fill="black"/>
<path fill-rule="evenodd" clip-rule="evenodd" d="M274.833 201.333H284.542V220.75H274.833V201.333Z" fill="black"/>
<path fill-rule="evenodd" clip-rule="evenodd" d="M294.25 201.333H303.958V211.042V220.75H294.25V201.333Z" fill="black"/>
<path fill-rule="evenodd" clip-rule="evenodd" d="M420.458 211.042V201.333H430.167V211.042H420.458Z" fill="black"/>
<path fill-rule="evenodd" clip-rule="evenodd" d="M216.583 211.042H226.292V220.75H216.583V211.042Z" fill="black"/>
<path fill-rule="evenodd" clip-rule="evenodd" d="M410.75 220.75V211.042H420.458V220.75H410.75Z" fill="black"/>
<path fill-rule="evenodd" clip-rule="evenodd" d="M226.292 220.75H236V240.167H226.292V230.458V220.75Z" fill="black"/>
<path fill-rule="evenodd" clip-rule="evenodd" d="M245.708 220.75H255.417V240.167H245.708V220.75Z" fill="black"/>
<path fill-rule="evenodd" clip-rule="evenodd" d="M265.125 220.75H274.833V249.875H265.125V259.583H255.417V249.875V240.167H265.125V230.458V220.75Z" fill="black"/>
<path fill-rule="evenodd" clip-rule="evenodd" d="M284.542 220.75H294.25V230.458V240.167H303.958V249.875H294.25V259.583H284.542H274.833V249.875H284.542V240.167V230.458V220.75Z" fill="black"/>
<path fill-rule="evenodd" clip-rule="evenodd" d="M303.958 220.75H313.667V230.458V240.167H303.958V220.75Z" fill="black"/>
<path fill-rule="evenodd" clip-rule="evenodd" d="M401.042 230.458V220.75H410.75V230.458H401.042Z" fill="black"/>
<path fill-rule="evenodd" clip-rule="evenodd" d="M391.333 240.167V230.458H401.042V240.167H391.333Z" fill="black"/>
<path fill-rule="evenodd" clip-rule="evenodd" d="M236 240.167H245.708V288.708H236V279V269.292V259.583V240.167Z" fill="black"/>
<path fill-rule="evenodd" clip-rule="evenodd" d="M313.667 249.875V240.167H323.375V249.875H313.667Z" fill="black"/>
<path fill-rule="evenodd" clip-rule="evenodd" d="M381.625 249.875V240.167H391.333V249.875H381.625Z" fill="black"/>
<path fill-rule="evenodd" clip-rule="evenodd" d="M303.958 249.875H313.667V259.583V269.292V279H303.958V249.875Z" fill="black"/>
<path fill-rule="evenodd" clip-rule="evenodd" d="M362.208 259.583V249.875H371.917H381.625V259.583H371.917H362.208Z" fill="black"/>
<path fill-rule="evenodd" clip-rule="evenodd" d="M265.125 259.583H274.833V269.292H265.125V259.583Z" fill="black"/>
<path fill-rule="evenodd" clip-rule="evenodd" d="M342.792 259.583H362.208V269.292H352.5H342.792V259.583Z" fill="black"/>
<path fill-rule="evenodd" clip-rule="evenodd" d="M274.833 269.292H284.542V279H274.833V269.292Z" fill="black"/>
<path fill-rule="evenodd" clip-rule="evenodd" d="M284.541 279H303.958V298.417V327.542V346.958V376.083V395.5V424.625V444.042V473.167H294.25V463.458H284.541V502.292H274.833V492.583V482.875V473.167V463.458H265.125H255.417V453.75V444.042V434.333V424.625V405.208V366.375H265.125V376.083V385.792V395.5V414.917V453.75H294.25V414.917V376.083V337.25V308.125V298.417V288.708H284.541V279Z" fill="black"/>
<path fill-rule="evenodd" clip-rule="evenodd" d="M245.708 288.708H255.417V298.417V308.125V317.833V337.25V366.375H245.708V356.667V346.958V337.25V327.542V288.708Z" fill="black"/>
<path fill-rule="evenodd" clip-rule="evenodd" d="M303.958 473.167H313.667V482.875H303.958V473.167Z" fill="black"/>
<path fill-rule="evenodd" clip-rule="evenodd" d="M313.667 482.875H323.375V492.583H313.667V482.875Z" fill="black"/>
<path fill-rule="evenodd" clip-rule="evenodd" d="M323.375 492.583H333.083V502.292V512H303.958H284.542V502.292H303.958H313.666H323.375V492.583Z" fill="black"/>
<path fill-rule="evenodd" clip-rule="evenodd" d="M362.208 104.25V94.5416H371.917V104.25H362.208Z" fill="#367617"/>
<path fill-rule="evenodd" clip-rule="evenodd" d="M381.625 113.958V104.25H391.333V113.958H381.625Z" fill="#367617"/>
<path fill-rule="evenodd" clip-rule="evenodd" d="M371.917 133.375V123.667H381.625V133.375H371.917Z" fill="#870B0B"/>
<path fill-rule="evenodd" clip-rule="evenodd" d="M371.917 65.4167V55.7084H381.625H391.333H401.041H410.75H420.458V75.125H391.333V65.4167H381.625H371.917Z" fill="#6D5B37"/>
<path fill-rule="evenodd" clip-rule="evenodd" d="M420.458 65.4166H430.167V75.125H420.458V65.4166Z" fill="#493A1C"/>
<path fill-rule="evenodd" clip-rule="evenodd" d="M410.75 113.958V104.25H420.458H430.167V123.667H420.458V113.958H410.75Z" fill="#493A1C"/>
<path fill-rule="evenodd" clip-rule="evenodd" d="M410.75 123.667H420.458V133.375H410.75V123.667Z" fill="#493A1C"/>
<path fill-rule="evenodd" clip-rule="evenodd" d="M362.208 75.125V65.4166H371.917V75.125H362.208Z" fill="#E34B4B"/>
<path fill-rule="evenodd" clip-rule="evenodd" d="M371.917 75.125H381.625H391.334V84.8333H381.625H371.917V75.125Z" fill="#E34B4B"/>
<path fill-rule="evenodd" clip-rule="evenodd" d="M391.333 94.5416V84.8333H401.042V94.5416H391.333Z" fill="#E34B4B"/>
<path fill-rule="evenodd" clip-rule="evenodd" d="M401.042 94.5417V84.8334H410.75H420.458H430.167V94.5417H410.75H401.042Z" fill="#B82727"/>
<path fill-rule="evenodd" clip-rule="evenodd" d="M459.292 94.5417V104.25H449.583H439.875V94.5417H449.583H459.292Z" fill="#B82727"/>
<path fill-rule="evenodd" clip-rule="evenodd" d="M439.875 123.667V113.958H449.583V123.667H439.875Z" fill="#B82727"/>
<path fill-rule="evenodd" clip-rule="evenodd" d="M265.125 172.208H274.833V181.917H265.125V172.208Z" fill="#686A6F"/>
<path fill-rule="evenodd" clip-rule="evenodd" d="M274.833 181.917H284.541V201.333H274.833V191.625V181.917Z" fill="#686A6F"/>
<path fill-rule="evenodd" clip-rule="evenodd" d="M265.125 220.75V211.042H274.833V220.75H265.125Z" fill="#686A6F"/>
<path fill-rule="evenodd" clip-rule="evenodd" d="M255.417 220.75H265.125V230.458V240.167H255.417V220.75Z" fill="#686A6F"/>
<path fill-rule="evenodd" clip-rule="evenodd" d="M284.541 230.458V240.167V249.875H274.833V240.167V230.458H284.541Z" fill="#686A6F"/>
<path fill-rule="evenodd" clip-rule="evenodd" d="M362.208 133.375H371.917V143.083H362.208V133.375Z" fill="#353638"/>
<path fill-rule="evenodd" clip-rule="evenodd" d="M371.917 143.083H381.625V152.792H371.917V143.083Z" fill="#353638"/>
<path fill-rule="evenodd" clip-rule="evenodd" d="M265.125 211.042V201.333H274.833V211.042H265.125Z" fill="#353638"/>
<path fill-rule="evenodd" clip-rule="evenodd" d="M294.25 220.75H284.542V211.042V201.333H294.25V211.042V220.75Z" fill="#353638"/>
<path fill-rule="evenodd" clip-rule="evenodd" d="M284.542 220.75V230.458H274.833V220.75H284.542Z" fill="#353638"/>
<path fill-rule="evenodd" clip-rule="evenodd" d="M294.25 220.75H303.958V230.458V240.167H294.25V230.458V220.75Z" fill="#353638"/>
<path fill-rule="evenodd" clip-rule="evenodd" d="M303.958 249.875V240.167H313.667V249.875H303.958Z" fill="#353638"/>
<path fill-rule="evenodd" clip-rule="evenodd" d="M100.083 94.5416V104.25H109.792H119.5V113.958H129.208H138.917H148.625V123.667H158.333H168.042V133.375H177.75H187.458V143.083H197.167H206.875V152.792H216.583H226.292V162.5H236H245.708V181.917H226.292H216.583V172.208H206.875H197.167V162.5H187.458V152.792H177.75H168.042V143.083H158.333H148.625V133.375H138.917H129.208V123.667H119.5H109.792H100.083V113.958H90.3748H80.6665V104.25V94.5416H90.3748H100.083Z" fill="#DBE0EA"/>
<path fill-rule="evenodd" clip-rule="evenodd" d="M333.083 133.375V123.667H342.791V133.375H333.083Z" fill="#DBE0EA"/>
<path fill-rule="evenodd" clip-rule="evenodd" d="M313.667 143.083V133.375H323.375H333.083V143.083H323.375H313.667Z" fill="#DBE0EA"/>
<path fill-rule="evenodd" clip-rule="evenodd" d="M313.667 143.083V152.792H303.958H294.25V143.083H303.958H313.667Z" fill="#DBE0EA"/>
<path fill-rule="evenodd" clip-rule="evenodd" d="M274.833 162.5V152.792H284.541V162.5H274.833Z" fill="#DBE0EA"/>
<path fill-rule="evenodd" clip-rule="evenodd" d="M323.375 162.5V152.792H333.083V162.5V172.208V181.917H323.375V191.625H313.666V201.333H303.958H294.25V191.625V181.917H284.542V172.208H294.25V162.5H303.958H313.666H323.375Z" fill="#DBE0EA"/>
<path fill-rule="evenodd" clip-rule="evenodd" d="M420.458 172.208V191.625H410.75V201.333H401.041V211.042H391.333V220.75H381.625V230.458H371.917V220.75V211.042H381.625V201.333H391.333V191.625H401.041V181.917H410.75V172.208H420.458Z" fill="#DBE0EA"/>
<path fill-rule="evenodd" clip-rule="evenodd" d="M245.708 201.333V191.625H255.416V201.333V211.042V220.75H245.708V211.042V201.333Z" fill="#DBE0EA"/>
<path fill-rule="evenodd" clip-rule="evenodd" d="M342.792 191.625H352.5V201.333V211.042V220.75H362.208V230.458V240.167V249.875H342.792V191.625Z" fill="#DBE0EA"/>
<path fill-rule="evenodd" clip-rule="evenodd" d="M274.833 414.917H265.125V385.792V376.083V366.375H255.416V356.667V346.958V337.25V327.542V317.833V308.125V298.417V288.708H245.708V279V259.583H255.416V269.292H265.125V279V288.708H274.833V298.417V308.125V317.833H284.541V327.542V337.25V346.958V356.667V366.375V376.083V385.792H274.833V395.5V414.917Z" fill="#DBE0EA"/>
<path fill-rule="evenodd" clip-rule="evenodd" d="M80.6665 123.667V113.958H90.3748H100.083V123.667H90.3748H80.6665Z" fill="#ACB0B8"/>
<path fill-rule="evenodd" clip-rule="evenodd" d="M100.083 123.667H109.791H119.5H129.208V133.375H138.916H148.625V143.083H158.333H168.041V152.792H177.75H187.458V162.5H197.166V172.208H206.875H216.583V181.917H226.291H245.708V191.625H236V201.333V220.75H226.291V211.042H216.583V201.333H206.875V191.625H197.166V181.917H187.458H177.75V172.208H168.041V162.5H158.333V152.792H148.625H138.916V143.083H129.208H119.5V133.375H109.791H100.083V123.667Z" fill="#ACB0B8"/>
<path fill-rule="evenodd" clip-rule="evenodd" d="M342.792 133.375V123.667H352.5H362.208V133.375H352.5H342.792Z" fill="#ACB0B8"/>
<path fill-rule="evenodd" clip-rule="evenodd" d="M342.791 133.375V143.083H333.083V133.375H342.791Z" fill="#ACB0B8"/>
<path fill-rule="evenodd" clip-rule="evenodd" d="M313.667 152.792V143.083H323.375V152.792H313.667Z" fill="#ACB0B8"/>
<path fill-rule="evenodd" clip-rule="evenodd" d="M420.458 172.208H410.75H401.041V181.917H391.333V191.625H381.625V201.333H371.917V191.625V181.917H381.625V172.208V162.5V152.792H391.333V143.083H401.041H410.75V152.792H420.458V162.5V172.208Z" fill="#ACB0B8"/>
<path fill-rule="evenodd" clip-rule="evenodd" d="M284.542 162.5V152.792H294.25V162.5H284.542Z" fill="#ACB0B8"/>
<path fill-rule="evenodd" clip-rule="evenodd" d="M245.708 181.917V172.208H255.416V181.917H245.708Z" fill="#ACB0B8"/>
<path fill-rule="evenodd" clip-rule="evenodd" d="M333.083 181.917V172.208H342.791V181.917H333.083Z" fill="#ACB0B8"/>
<path fill-rule="evenodd" clip-rule="evenodd" d="M420.458 172.208H430.166V201.333H420.458V211.042H410.75V220.75H401.041V230.458H391.333V240.167H381.625V249.875H371.916H362.208V240.167V230.458H371.916H381.625V220.75H391.333V211.042H401.041V201.333H410.75V191.625H420.458V181.917V172.208Z" fill="#ACB0B8"/>
<path fill-rule="evenodd" clip-rule="evenodd" d="M255.417 181.917H265.125V191.625V201.333H255.417V191.625V181.917Z" fill="#ACB0B8"/>
<path fill-rule="evenodd" clip-rule="evenodd" d="M333.083 181.917V191.625V201.333V211.042V220.75V230.458H323.375V240.167H313.666V230.458V220.75H303.958V211.042V201.333H313.666V191.625H323.375V181.917H333.083Z" fill="#ACB0B8"/>
<path fill-rule="evenodd" clip-rule="evenodd" d="M352.5 201.333V191.625H362.208V201.333V211.042V220.75H352.5V211.042V201.333Z" fill="#ACB0B8"/>
<path fill-rule="evenodd" clip-rule="evenodd" d="M236 220.75H245.708V230.458V240.167H236V230.458V220.75Z" fill="#ACB0B8"/>
<path fill-rule="evenodd" clip-rule="evenodd" d="M245.708 240.167H255.416V249.875V259.583H245.708V249.875V240.167Z" fill="#ACB0B8"/>
<path fill-rule="evenodd" clip-rule="evenodd" d="M265.125 259.583V249.875H274.833V259.583H265.125Z" fill="#ACB0B8"/>
<path fill-rule="evenodd" clip-rule="evenodd" d="M284.541 279V269.292H274.833V259.583H284.541H294.25V249.875H303.958V259.583V269.292V279H294.25H284.541Z" fill="#ACB0B8"/>
<path fill-rule="evenodd" clip-rule="evenodd" d="M362.208 249.875V259.583H352.5H342.792V249.875H352.5H362.208Z" fill="#ACB0B8"/>
<path fill-rule="evenodd" clip-rule="evenodd" d="M255.417 259.583H265.125V269.292H255.417V259.583Z" fill="#ACB0B8"/>
<path fill-rule="evenodd" clip-rule="evenodd" d="M265.125 269.292H274.833V279H284.542V288.708H294.25V298.417V308.125V317.833V327.542V337.25V346.958V356.667V366.375V376.083V405.208V453.75H265.125V444.042V434.333V424.625V414.917H274.833V405.208V395.5V385.792H284.542V376.083V366.375V356.667V346.958V337.25V327.542V317.833H274.833V308.125V298.417V288.708H265.125V279V269.292Z" fill="#ACB0B8"/>
<path fill-rule="evenodd" clip-rule="evenodd" d="M51.5418 75.125V84.8333H41.8335H32.1252H22.4168V94.5417H12.7085V84.8333V75.125H22.4168H32.1252H41.8335H51.5418Z" fill="#FFDEB6"/>
<path fill-rule="evenodd" clip-rule="evenodd" d="M61.25 94.5417V84.8334H70.9583V94.5417H61.25Z" fill="#FFDEB6"/>
<path fill-rule="evenodd" clip-rule="evenodd" d="M381.625 104.25V113.958H362.208V104.25H371.917H381.625Z" fill="#FFDEB6"/>
<path fill-rule="evenodd" clip-rule="evenodd" d="M342.792 143.083H352.5H362.209V152.792V162.5V172.208H352.5V162.5H342.792V152.792V143.083Z" fill="#FFDEB6"/>
<path fill-rule="evenodd" clip-rule="evenodd" d="M313.667 502.292H284.542V473.167H294.25V482.875H303.959V492.583H313.667V502.292Z" fill="#FFDEB6"/>
<path fill-rule="evenodd" clip-rule="evenodd" d="M22.4165 94.5417V84.8334H32.1248H41.8332H61.2498V94.5417H41.8332H22.4165Z" fill="#EEAF82"/>
<path fill-rule="evenodd" clip-rule="evenodd" d="M362.208 84.8334H371.916V94.5417H362.208V84.8334Z" fill="#EEAF82"/>
<path fill-rule="evenodd" clip-rule="evenodd" d="M61.25 94.5417H70.9583V104.25H61.25V94.5417Z" fill="#EEAF82"/>
<path fill-rule="evenodd" clip-rule="evenodd" d="M371.917 94.5417H381.625H391.333V104.25H381.625H371.917V94.5417Z" fill="#EEAF82"/>
<path fill-rule="evenodd" clip-rule="evenodd" d="M391.333 104.25H401.041V113.958H410.75V123.667H401.041V133.375H391.333H381.625V123.667H371.916H362.208V113.958H371.916H381.625H391.333V104.25Z" fill="#EEAF82"/>
<path fill-rule="evenodd" clip-rule="evenodd" d="M371.917 152.792V162.5V172.208V181.917H362.208H352.5V172.208H362.208V162.5V152.792H371.917Z" fill="#EEAF82"/>
<path fill-rule="evenodd" clip-rule="evenodd" d="M294.25 473.167H284.542V463.458H294.25V473.167Z" fill="#EEAF82"/>
<path fill-rule="evenodd" clip-rule="evenodd" d="M294.25 473.167H303.958V482.875H294.25V473.167Z" fill="#EEAF82"/>
<path fill-rule="evenodd" clip-rule="evenodd" d="M303.958 482.875H313.666V492.583H303.958V482.875Z" fill="#EEAF82"/>
<path fill-rule="evenodd" clip-rule="evenodd" d="M313.667 502.292V492.583H323.375V502.292H313.667Z" fill="#EEAF82"/>
</g>
</svg>