<svg width="630" height="530" viewBox="0 0 630 530" fill="none" xmlns="http://www.w3.org/2000/svg">
<mask id="mask0" mask-type="alpha" maskUnits="userSpaceOnUse" x="0" y="0" width="630" height="530">
<rect width="630" height="530" rx="8" fill="#1F244A"/>
</mask>
<g mask="url(#mask0)">
<path fill-rule="evenodd" clip-rule="evenodd" d="M606.64 449.233V476.191H602.495H579.281H551.921H524.561H497.202H469.842H442.759H442.482H415.399V449.233L388.039 422V449.233H360.68H333.32H305.961H278.601H251.241H224.158H196.798H169.439H142.079V476.191H114.719V503.425V530.383H87.3597L60 557.616L87.3597 584.574H114.719L87.3597 611.808L114.719 638.766H142.079L169.439 666H524.561V638.766H551.921V611.808H606.64V584.574V530.383H634V476.191L606.64 449.233Z" fill="#1C1E32" stroke="#1C1E32" stroke-width="0.5" stroke-miterlimit="10" stroke-linejoin="round"/>
<path fill-rule="evenodd" clip-rule="evenodd" d="M442.31 449.262H414.983H387.655V422H114.655V449.262H87.3276V503.512H60V557.762H87.3276V612.012H141.983V639H169.31H196.638H223.966H251.293H278.345H305.672H333H360.328H387.655H414.983H442.31H469.362H496.69V612.012H524.017V584.75H551.345H578.672V503.512H606V449.262H442.31Z" fill="#49B749" stroke="#1C1E32" stroke-width="0.5" stroke-miterlimit="10" stroke-linejoin="round"/>
<path fill-rule="evenodd" clip-rule="evenodd" d="M296 32.2078V21.9995H357.25V32.2078H296Z" fill="black"/>
<path fill-rule="evenodd" clip-rule="evenodd" d="M296 32.2079V42.4162H306.208H316.417H326.625H336.833H347.042H357.25V32.2079H367.458V42.4162V52.6246H377.667H387.875V62.8329H377.667H367.458V73.0412H377.667H387.875V62.8329H398.083V83.2496H387.875V93.4579V103.666H377.667H367.458H357.25V83.2496V73.0412H347.042V103.666H336.833V83.2496V73.0412H326.625H316.417H306.208H296V83.2496V93.4579V103.666H285.792V73.0412V62.8329V52.6246V42.4162V32.2079H296ZM296 62.8329H306.208H326.625H357.25V52.6246H347.042H336.833H326.625H296V62.8329ZM377.667 93.4579V83.2496H367.458V93.4579H377.667Z" fill="black"/>
<path fill-rule="evenodd" clip-rule="evenodd" d="M265.375 113.874V103.666H275.583H285.792V113.874H275.583H265.375Z" fill="black"/>
<path fill-rule="evenodd" clip-rule="evenodd" d="M296 103.666H306.208V113.874H296V103.666Z" fill="black"/>
<path fill-rule="evenodd" clip-rule="evenodd" d="M347.042 113.874V103.666H357.25V113.874H347.042Z" fill="black"/>
<path fill-rule="evenodd" clip-rule="evenodd" d="M265.375 113.875V124.083V134.291H255.167V124.083V113.875H265.375Z" fill="black"/>
<path fill-rule="evenodd" clip-rule="evenodd" d="M306.208 113.875H347.042V124.083H336.833V134.291H326.625V124.083H316.417V134.291H326.625V144.5H296V134.291H306.208V124.083V113.875Z" fill="black"/>
<path fill-rule="evenodd" clip-rule="evenodd" d="M357.25 113.875H367.458V124.083H357.25V113.875Z" fill="black"/>
<path fill-rule="evenodd" clip-rule="evenodd" d="M285.792 144.5H275.583V134.291V124.083H285.792V134.291V144.5Z" fill="black"/>
<path fill-rule="evenodd" clip-rule="evenodd" d="M367.458 124.083H377.667V134.291V144.5H367.458V134.291V124.083Z" fill="black"/>
<path fill-rule="evenodd" clip-rule="evenodd" d="M255.167 134.291V144.499V154.708H244.958V144.499V134.291H255.167Z" fill="black"/>
<path fill-rule="evenodd" clip-rule="evenodd" d="M357.25 175.124H347.042V164.916H336.833V154.708H347.042V144.499V134.291H357.25V144.499V175.124Z" fill="black"/>
<path fill-rule="evenodd" clip-rule="evenodd" d="M275.583 144.5V154.708V164.916H265.375V154.708V144.5H275.583Z" fill="black"/>
<path fill-rule="evenodd" clip-rule="evenodd" d="M285.792 144.5H296V175.125H285.792V164.916V154.708V144.5Z" fill="black"/>
<path fill-rule="evenodd" clip-rule="evenodd" d="M326.625 144.5H336.833V154.708H326.625V144.5Z" fill="black"/>
<path fill-rule="evenodd" clip-rule="evenodd" d="M377.667 144.5H387.875V154.708V164.916V175.125V185.333V195.541V205.75H377.667V144.5Z" fill="black"/>
<path fill-rule="evenodd" clip-rule="evenodd" d="M142.875 164.916V154.708H153.083H163.292H173.5V164.916H142.875Z" fill="black"/>
<path fill-rule="evenodd" clip-rule="evenodd" d="M244.958 154.708V164.916V175.125H234.75V164.916V154.708H244.958Z" fill="black"/>
<path fill-rule="evenodd" clip-rule="evenodd" d="M142.875 164.916V195.541H132.667V185.333V175.124V164.916H142.875Z" fill="black"/>
<path fill-rule="evenodd" clip-rule="evenodd" d="M173.5 164.916H183.708V175.124H193.917H204.125H234.75V185.333H224.542H214.333H204.125H193.917V195.541V205.749H204.125H214.333V215.958H204.125H193.917H183.708V205.749H173.5H163.292H153.083H142.875V195.541H153.083H163.292H173.5H183.708V185.333H173.5V175.124V164.916Z" fill="black"/>
<path fill-rule="evenodd" clip-rule="evenodd" d="M265.375 164.916V175.124V185.333H255.167V175.124V164.916H265.375Z" fill="black"/>
<path fill-rule="evenodd" clip-rule="evenodd" d="M316.417 175.124V164.916H326.625H336.833V175.124V185.333H326.625V175.124H316.417Z" fill="black"/>
<path fill-rule="evenodd" clip-rule="evenodd" d="M296 175.125H316.417V185.333H306.208V195.541H296V175.125Z" fill="black"/>
<path fill-rule="evenodd" clip-rule="evenodd" d="M357.25 175.125H367.458V185.333H357.25V175.125Z" fill="black"/>
<path fill-rule="evenodd" clip-rule="evenodd" d="M244.958 195.541V185.333H255.167V195.541H244.958Z" fill="black"/>
<path fill-rule="evenodd" clip-rule="evenodd" d="M316.417 185.333H326.625V195.541H347.042V205.75H336.833V215.958H326.625V205.75H316.417V195.541V185.333Z" fill="black"/>
<path fill-rule="evenodd" clip-rule="evenodd" d="M214.333 205.749V195.541H224.542H234.75H244.958V205.749H234.75V215.958H224.542V205.749H214.333Z" fill="black"/>
<path fill-rule="evenodd" clip-rule="evenodd" d="M296 195.541V205.749V215.958H285.792V205.749V195.541H296Z" fill="black"/>
<path fill-rule="evenodd" clip-rule="evenodd" d="M244.958 215.958V205.75H255.167V215.958H244.958Z" fill="black"/>
<path fill-rule="evenodd" clip-rule="evenodd" d="M347.042 205.75H377.666V215.958H367.458H357.25H347.042V205.75Z" fill="black"/>
<path fill-rule="evenodd" clip-rule="evenodd" d="M214.333 215.958H224.542V256.791H214.333V246.583V236.375H183.708V226.166H193.917H204.125H214.333V215.958Z" fill="black"/>
<path fill-rule="evenodd" clip-rule="evenodd" d="M234.75 215.958H244.958V226.166H234.75V215.958Z" fill="black"/>
<path fill-rule="evenodd" clip-rule="evenodd" d="M255.167 226.166V215.958H265.375V226.166H255.167Z" fill="black"/>
<path fill-rule="evenodd" clip-rule="evenodd" d="M285.792 215.958V236.375H265.375V226.166H275.583V215.958H285.792Z" fill="black"/>
<path fill-rule="evenodd" clip-rule="evenodd" d="M326.625 215.958V226.166V236.375H316.417V226.166V215.958H326.625Z" fill="black"/>
<path fill-rule="evenodd" clip-rule="evenodd" d="M244.958 236.374V226.166H255.167V236.374H244.958Z" fill="black"/>
<path fill-rule="evenodd" clip-rule="evenodd" d="M142.875 246.583V236.375H153.083H163.292H183.708V246.583H142.875Z" fill="black"/>
<path fill-rule="evenodd" clip-rule="evenodd" d="M244.958 236.375V246.583H234.75V236.375H244.958Z" fill="black"/>
<path fill-rule="evenodd" clip-rule="evenodd" d="M255.167 246.583V236.375H265.375V246.583H255.167Z" fill="black"/>
<path fill-rule="evenodd" clip-rule="evenodd" d="M285.792 246.583V236.375H316.417V328.25V348.666H306.208V338.458V328.25V318.041V307.833V297.625H296H285.792H275.583H265.375V287.416H306.208V267H296H285.792V256.791H296H306.208V246.583H296H285.792Z" fill="black"/>
<path fill-rule="evenodd" clip-rule="evenodd" d="M122.458 256.791V246.583H132.667H142.875V256.791H132.667H122.458Z" fill="black"/>
<path fill-rule="evenodd" clip-rule="evenodd" d="M244.958 246.583H255.167V256.791H244.958V246.583Z" fill="black"/>
<path fill-rule="evenodd" clip-rule="evenodd" d="M265.375 246.583H285.792V256.791H275.583V267H265.375H255.167V256.791H265.375V246.583Z" fill="black"/>
<path fill-rule="evenodd" clip-rule="evenodd" d="M112.25 256.791H122.458V287.416H112.25V256.791Z" fill="black"/>
<path fill-rule="evenodd" clip-rule="evenodd" d="M224.542 256.791H234.75V266.999H244.958V277.208H204.125V266.999H214.333H224.542V256.791Z" fill="black"/>
<path fill-rule="evenodd" clip-rule="evenodd" d="M204.125 277.208V287.416H193.917H183.708V297.625H173.5V287.416H163.292H153.083V277.208H163.292H204.125Z" fill="black"/>
<path fill-rule="evenodd" clip-rule="evenodd" d="M244.958 277.208H255.167H265.375V287.416H255.167V297.625H244.958V287.416V277.208Z" fill="black"/>
<path fill-rule="evenodd" clip-rule="evenodd" d="M122.458 287.416H132.667V297.625H122.458V287.416Z" fill="black"/>
<path fill-rule="evenodd" clip-rule="evenodd" d="M132.667 297.625H142.875V307.833H132.667V297.625Z" fill="black"/>
<path fill-rule="evenodd" clip-rule="evenodd" d="M183.708 307.833V297.625H193.917V307.833H183.708Z" fill="black"/>
<path fill-rule="evenodd" clip-rule="evenodd" d="M255.167 297.625H265.375V318.041H255.167V307.833V297.625Z" fill="black"/>
<path fill-rule="evenodd" clip-rule="evenodd" d="M142.875 307.833H153.083V318.041H142.875V307.833Z" fill="black"/>
<path fill-rule="evenodd" clip-rule="evenodd" d="M183.708 307.833V328.249H173.5V318.041V307.833H183.708Z" fill="black"/>
<path fill-rule="evenodd" clip-rule="evenodd" d="M193.917 307.833H204.125H214.333V318.041H204.125H193.917V307.833Z" fill="black"/>
<path fill-rule="evenodd" clip-rule="evenodd" d="M153.083 318.041H163.292V328.25H153.083V318.041Z" fill="black"/>
<path fill-rule="evenodd" clip-rule="evenodd" d="M214.333 318.041H224.542V328.25V338.458H214.333V328.25V318.041Z" fill="black"/>
<path fill-rule="evenodd" clip-rule="evenodd" d="M265.375 318.041H275.583V328.25V338.458V348.666H265.375V338.458V328.25V318.041Z" fill="black"/>
<path fill-rule="evenodd" clip-rule="evenodd" d="M163.292 328.25H173.5V338.458H163.292V328.25Z" fill="black"/>
<path fill-rule="evenodd" clip-rule="evenodd" d="M183.708 328.25H193.917V338.458H183.708V328.25Z" fill="black"/>
<path fill-rule="evenodd" clip-rule="evenodd" d="M193.917 338.458H204.125V348.666H193.917V338.458Z" fill="black"/>
<path fill-rule="evenodd" clip-rule="evenodd" d="M224.542 338.458H234.75V348.666V358.874V369.083H224.542H214.333V358.874H224.542V348.666V338.458Z" fill="black"/>
<path fill-rule="evenodd" clip-rule="evenodd" d="M204.125 348.666H214.333V358.875H204.125V348.666Z" fill="black"/>
<path fill-rule="evenodd" clip-rule="evenodd" d="M275.583 348.666H285.792V358.875V369.083V379.291V389.5V430.333V460.958H306.208H316.417V450.75V440.541V430.333V420.125V409.916V379.291V369.083V358.875V348.666H326.625V358.875V369.083V379.291V389.5V399.708V409.916V420.125V430.333V440.541V450.75V460.958V471.166H316.417V481.375H306.208V471.166H296V481.375V491.583V501.791H306.208H316.417H326.625V491.583H336.833V501.791V512H316.417H285.792V481.375V471.166H275.583V460.958V450.75V440.541V430.333V399.708V358.875V348.666Z" fill="black"/>
<path fill-rule="evenodd" clip-rule="evenodd" d="M316.417 481.375H326.625V491.583H316.417V481.375Z" fill="black"/>
<path fill-rule="evenodd" clip-rule="evenodd" d="M316.417 52.6245H326.625H336.833V62.8328H316.417H306.208H296V52.6245H306.208H316.417Z" fill="#E34B4B"/>
<path fill-rule="evenodd" clip-rule="evenodd" d="M336.833 62.8328V52.6245H347.042H357.25V62.8328H347.042H336.833Z" fill="#B82727"/>
<path fill-rule="evenodd" clip-rule="evenodd" d="M387.875 62.8329V73.0412H377.667H367.458V62.8329H377.667H387.875Z" fill="#B82727"/>
<path fill-rule="evenodd" clip-rule="evenodd" d="M367.458 93.4578V83.2495H377.667V93.4578H367.458Z" fill="#B82727"/>
<path fill-rule="evenodd" clip-rule="evenodd" d="M296 32.2079H316.417H326.625H336.833H347.042V42.4162H306.208H296V32.2079Z" fill="#6D5B37"/>
<path fill-rule="evenodd" clip-rule="evenodd" d="M347.042 42.4162V32.2079H357.25V42.4162H347.042Z" fill="#493A1C"/>
<path fill-rule="evenodd" clip-rule="evenodd" d="M347.042 73.0413H357.25V83.2496V93.4579V103.666H347.042V73.0413Z" fill="#493A1C"/>
<path fill-rule="evenodd" clip-rule="evenodd" d="M306.208 73.0411V83.2495H296V73.0411H306.208Z" fill="#367617"/>
<path fill-rule="evenodd" clip-rule="evenodd" d="M326.625 83.2495V73.0411H336.833V83.2495H326.625Z" fill="#367617"/>
<path fill-rule="evenodd" clip-rule="evenodd" d="M306.208 103.666V93.4579H316.417H326.625V103.666V113.875H316.417H306.208V103.666Z" fill="#870B0B"/>
<path fill-rule="evenodd" clip-rule="evenodd" d="M234.75 215.958V205.75H244.958V215.958H234.75Z" fill="#686A6F"/>
<path fill-rule="evenodd" clip-rule="evenodd" d="M244.958 215.958H255.167V226.166H244.958V215.958Z" fill="#686A6F"/>
<path fill-rule="evenodd" clip-rule="evenodd" d="M255.167 236.374V226.166H265.375V236.374H255.167Z" fill="#686A6F"/>
<path fill-rule="evenodd" clip-rule="evenodd" d="M244.958 246.583V236.375H255.167V246.583H244.958Z" fill="#686A6F"/>
<path fill-rule="evenodd" clip-rule="evenodd" d="M316.417 124.083H326.625V134.291H316.417V124.083Z" fill="#353638"/>
<path fill-rule="evenodd" clip-rule="evenodd" d="M265.375 246.583V236.375H275.583H285.792V246.583H265.375Z" fill="#353638"/>
<path fill-rule="evenodd" clip-rule="evenodd" d="M255.167 246.583H265.375V256.791H255.167V246.583Z" fill="#353638"/>
<path fill-rule="evenodd" clip-rule="evenodd" d="M285.792 256.791V246.583H296H306.208V256.791H285.792Z" fill="#353638"/>
<path fill-rule="evenodd" clip-rule="evenodd" d="M265.375 113.875H275.583V124.083V134.291H265.375V113.875Z" fill="#DBE0EA"/>
<path fill-rule="evenodd" clip-rule="evenodd" d="M285.792 144.5V134.291V124.083H296V134.291V144.5H285.792Z" fill="#DBE0EA"/>
<path fill-rule="evenodd" clip-rule="evenodd" d="M265.375 134.291V144.499V154.708H255.167V144.499V134.291H265.375Z" fill="#DBE0EA"/>
<path fill-rule="evenodd" clip-rule="evenodd" d="M367.458 134.291V175.124H357.25V154.708V144.499V134.291H367.458Z" fill="#DBE0EA"/>
<path fill-rule="evenodd" clip-rule="evenodd" d="M285.792 144.5V175.125V185.333V195.541H275.584V205.75V215.958H255.167V205.75H244.958V195.541H255.167V185.333H265.375V175.125V164.916H275.584V154.708V144.5H285.792Z" fill="#DBE0EA"/>
<path fill-rule="evenodd" clip-rule="evenodd" d="M255.167 154.708V164.916V175.125H244.958V164.916V154.708H255.167Z" fill="#DBE0EA"/>
<path fill-rule="evenodd" clip-rule="evenodd" d="M347.042 175.124H336.833V164.916H347.042V175.124Z" fill="#DBE0EA"/>
<path fill-rule="evenodd" clip-rule="evenodd" d="M234.75 185.333V175.125H244.958V185.333H234.75Z" fill="#DBE0EA"/>
<path fill-rule="evenodd" clip-rule="evenodd" d="M347.042 175.125H357.25V185.333H347.042V175.125Z" fill="#DBE0EA"/>
<path fill-rule="evenodd" clip-rule="evenodd" d="M234.75 185.333V195.541H224.542H214.334V205.75H204.125H193.917V195.541V185.333H204.125H214.334H234.75Z" fill="#DBE0EA"/>
<path fill-rule="evenodd" clip-rule="evenodd" d="M357.25 185.333H367.458V195.541H357.25V185.333Z" fill="#DBE0EA"/>
<path fill-rule="evenodd" clip-rule="evenodd" d="M296 215.958V205.749V195.541H306.208V205.749V215.958H296Z" fill="#DBE0EA"/>
<path fill-rule="evenodd" clip-rule="evenodd" d="M234.75 256.791H224.542V246.583V236.375V226.166V215.958H234.75V256.791Z" fill="#DBE0EA"/>
<path fill-rule="evenodd" clip-rule="evenodd" d="M296 215.958V226.166H285.792V215.958H296Z" fill="#DBE0EA"/>
<path fill-rule="evenodd" clip-rule="evenodd" d="M122.458 287.416V256.791H132.667H142.875V246.583H153.083H163.292H173.5H183.708V236.375H193.917H214.333V246.583H204.125V256.791H193.917H183.708V267H173.5H163.292H153.083H142.875V277.208H132.667V287.416H122.458Z" fill="#DBE0EA"/>
<path fill-rule="evenodd" clip-rule="evenodd" d="M234.75 256.791H244.958V266.999H234.75V256.791Z" fill="#DBE0EA"/>
<path fill-rule="evenodd" clip-rule="evenodd" d="M153.083 307.833H142.875V297.625H153.083V307.833Z" fill="#DBE0EA"/>
<path fill-rule="evenodd" clip-rule="evenodd" d="M153.083 307.833H163.292H173.5V318.041V328.249H163.292V318.041H153.083V307.833Z" fill="#DBE0EA"/>
<path fill-rule="evenodd" clip-rule="evenodd" d="M316.417 460.958H285.792V420.124V389.499V379.291V369.083V358.874V348.666H275.583V338.458V307.833H285.792V318.041H296V328.249V338.458V348.666V358.874V369.083H306.208V379.291V389.499V399.708V409.916V420.124V430.333H316.417V440.541V460.958Z" fill="#DBE0EA"/>
<path fill-rule="evenodd" clip-rule="evenodd" d="M285.791 103.666H296V113.874H306.208V124.083V134.291H296V124.083H285.791H275.583V113.874H285.791V103.666Z" fill="#ACB0B8"/>
<path fill-rule="evenodd" clip-rule="evenodd" d="M367.458 124.083V134.291H357.25H347.042V144.5V154.708H336.833V144.5H326.625V134.291H336.833V124.083H347.042V113.875H357.25V124.083H367.458Z" fill="#ACB0B8"/>
<path fill-rule="evenodd" clip-rule="evenodd" d="M265.375 144.499V134.291H275.583V144.499H265.375Z" fill="#ACB0B8"/>
<path fill-rule="evenodd" clip-rule="evenodd" d="M377.667 144.5V205.75H367.458H357.25H347.042V195.541H336.833H326.625V185.333H336.833V175.125H347.042V185.333H357.25V195.541H367.458V185.333V175.125V164.916V154.708V144.5H377.667Z" fill="#ACB0B8"/>
<path fill-rule="evenodd" clip-rule="evenodd" d="M255.167 164.916V154.708H265.375V164.916H255.167Z" fill="#ACB0B8"/>
<path fill-rule="evenodd" clip-rule="evenodd" d="M244.958 185.333V175.125H255.166V185.333H244.958Z" fill="#ACB0B8"/>
<path fill-rule="evenodd" clip-rule="evenodd" d="M285.792 195.541V185.333V175.125H296V185.333V195.541H285.792Z" fill="#ACB0B8"/>
<path fill-rule="evenodd" clip-rule="evenodd" d="M316.417 185.333V175.125H326.625V185.333H316.417Z" fill="#ACB0B8"/>
<path fill-rule="evenodd" clip-rule="evenodd" d="M244.958 185.333V195.541H234.75V185.333H244.958Z" fill="#ACB0B8"/>
<path fill-rule="evenodd" clip-rule="evenodd" d="M316.417 185.333V195.541V205.749H326.625V215.958H316.417V226.166V236.374H306.208H285.792V226.166H296V215.958H306.208V205.749V195.541V185.333H316.417Z" fill="#ACB0B8"/>
<path fill-rule="evenodd" clip-rule="evenodd" d="M285.791 195.541V205.749V215.958H275.583V205.749V195.541H285.791Z" fill="#ACB0B8"/>
<path fill-rule="evenodd" clip-rule="evenodd" d="M275.583 215.958V226.166H265.375V215.958H275.583Z" fill="#ACB0B8"/>
<path fill-rule="evenodd" clip-rule="evenodd" d="M234.75 236.374V226.166H244.958V236.374H234.75Z" fill="#ACB0B8"/>
<path fill-rule="evenodd" clip-rule="evenodd" d="M132.667 297.624V277.208H142.875V266.999H153.083H163.292H173.5H183.708V256.791H193.917H204.125V246.583H214.333V256.791H224.542V266.999H214.333H204.125V277.208H193.917H183.708H173.5H163.292H153.083V287.416H163.292H173.5V297.624H183.708V307.833H173.5H163.292H153.083V297.624H142.875H132.667Z" fill="#ACB0B8"/>
<path fill-rule="evenodd" clip-rule="evenodd" d="M244.958 256.791H234.75V246.583H244.958V256.791Z" fill="#ACB0B8"/>
<path fill-rule="evenodd" clip-rule="evenodd" d="M244.958 256.791H255.166V266.999H265.375H275.583V256.791H285.791V266.999H296H306.208V277.208V287.416H296H285.791H275.583H265.375V277.208H255.166H244.958V266.999V256.791Z" fill="#ACB0B8"/>
<path fill-rule="evenodd" clip-rule="evenodd" d="M265.375 287.416V297.624H255.167V287.416H265.375Z" fill="#ACB0B8"/>
<path fill-rule="evenodd" clip-rule="evenodd" d="M265.375 297.625H275.583H285.792H296H306.208V307.833V318.041V328.25V338.458V348.666H316.417V358.875V369.083V379.291V399.708V430.333H306.208V399.708V389.499V379.291V369.083H296V358.875V348.666V338.458V328.25V318.041H285.792V307.833H275.583V318.041H265.375V307.833V297.625Z" fill="#ACB0B8"/>
<path fill-rule="evenodd" clip-rule="evenodd" d="M306.208 73.0411H326.625V83.2495H336.834V93.4578H326.625H316.417H306.208V83.2495V73.0411Z" fill="#FFDAB4"/>
<path fill-rule="evenodd" clip-rule="evenodd" d="M296 154.708V144.5H306.208H316.417H326.625V154.708H316.417V164.916H306.208H296V154.708Z" fill="#FFDAB4"/>
<path fill-rule="evenodd" clip-rule="evenodd" d="M142.875 164.916H153.083H163.292V175.124V185.333H153.083V195.541H142.875V164.916Z" fill="#FFDAB4"/>
<path fill-rule="evenodd" clip-rule="evenodd" d="M193.917 328.249H183.708V318.041H193.917V328.249Z" fill="#FFDAB4"/>
<path fill-rule="evenodd" clip-rule="evenodd" d="M193.917 328.25H204.125V338.458H193.917V328.25Z" fill="#FFDAB4"/>
<path fill-rule="evenodd" clip-rule="evenodd" d="M204.125 338.458H214.333V348.666H204.125V338.458Z" fill="#FFDAB4"/>
<path fill-rule="evenodd" clip-rule="evenodd" d="M316.417 501.791H296V491.583V481.375H306.208V491.583H316.417V501.791Z" fill="#FFDAB4"/>
<path fill-rule="evenodd" clip-rule="evenodd" d="M296 83.2495H306.208V93.4578V103.666H296V93.4578V83.2495Z" fill="#EEAC84"/>
<path fill-rule="evenodd" clip-rule="evenodd" d="M347.042 103.666V113.875H336.833H326.625V103.666V93.4579H336.833V103.666H347.042Z" fill="#EEAC84"/>
<path fill-rule="evenodd" clip-rule="evenodd" d="M316.417 164.916V154.708H326.625H336.834V164.916H326.625H316.417Z" fill="#EEAC84"/>
<path fill-rule="evenodd" clip-rule="evenodd" d="M153.083 195.541V185.333H163.292V175.124V164.916H173.5V175.124V185.333H183.708V195.541H173.5H153.083Z" fill="#EEAC84"/>
<path fill-rule="evenodd" clip-rule="evenodd" d="M316.417 164.916V175.124H306.208H296V164.916H306.208H316.417Z" fill="#EEAC84"/>
<path fill-rule="evenodd" clip-rule="evenodd" d="M193.917 318.041H183.708V307.833H193.917V318.041Z" fill="#EEAC84"/>
<path fill-rule="evenodd" clip-rule="evenodd" d="M193.917 318.041H204.125H214.334V328.25V338.458H204.125V328.25H193.917V318.041Z" fill="#EEAC84"/>
<path fill-rule="evenodd" clip-rule="evenodd" d="M214.333 338.458H224.542V348.666V358.874H214.333V348.666V338.458Z" fill="#EEAC84"/>
<path fill-rule="evenodd" clip-rule="evenodd" d="M306.208 481.375H296V471.166H306.208V481.375Z" fill="#EEAC84"/>
<path fill-rule="evenodd" clip-rule="evenodd" d="M306.208 481.375H316.417V491.583H306.208V481.375Z" fill="#EEAC84"/>
<path fill-rule="evenodd" clip-rule="evenodd" d="M316.417 501.791V491.583H326.625V501.791H316.417Z" fill="#EEAC84"/>
</g>
</svg>