<svg width="90" height="108" viewBox="0 0 90 108" fill="none" xmlns="http://www.w3.org/2000/svg">
<path d="M44.0344 33.7045H30.3101V47.4288H44.0344V33.7045Z" fill="#00DD00"/>
<path d="M59.1647 33.7045H45.4404V47.4288H59.1647V33.7045Z" fill="#00DD00"/>
<path d="M74.2956 33.7045H60.5713V47.4288H74.2956V33.7045Z" fill="#00DD00"/>
<path d="M28.9035 33.7045H15.1792V47.4288H28.9035V33.7045Z" fill="#00DD00"/>
<path d="M44.0344 48.8352H30.3101V62.5595H44.0344V48.8352Z" fill="#00DD00"/>
<path d="M59.1647 48.8352H45.4404V62.5595H59.1647V48.8352Z" fill="#00DD00"/>
<path d="M13.7726 48.8352H0.0483398V62.5595H13.7726V48.8352Z" fill="#00DD00"/>
<path d="M89.426 48.8352H75.7017V62.5595H89.426V48.8352Z" fill="#00DD00"/>
<path d="M28.9035 63.9659H15.1792V77.6902H28.9035V63.9659Z" fill="#00DD00"/>
<path d="M13.7243 63.9659H0V77.6902H13.7243V63.9659Z" fill="#00DD00"/>
<path d="M74.2956 63.9659H60.5713V77.6902H74.2956V63.9659Z" fill="#00DD00"/>
<path d="M89.426 63.9659H75.7017V77.6902H89.426V63.9659Z" fill="#00DD00"/>
<path d="M28.9035 79.048H15.1792V92.7723H28.9035V79.048Z" fill="#00DD00"/>
<path d="M13.7726 79.048H0.0483398V92.7723H13.7726V79.048Z" fill="#00DD00"/>
<path d="M74.2956 79.048H60.5713V92.7723H74.2956V79.048Z" fill="#00DD00"/>
<path d="M89.426 79.048H75.7017V92.7723H89.426V79.048Z" fill="#00DD00"/>
<path d="M59.165 25.4603H30.3101V32.3467H59.165V25.4603Z" fill="#00DD00"/>
<path d="M48.2048 0H41.3184V24.0539H48.2048V0Z" fill="#00DD00"/>
<path d="M7.66235 107.515V107.806H5.18907L3.6857 105.187H2.4733V107.806H0.145508V99.5132C1.45489 99.5132 2.76428 99.5132 4.07366 99.5132C6.20747 99.5132 7.27438 101.017 7.27438 102.471C7.27438 103.441 6.83792 104.314 5.965 104.896L7.66235 107.515ZM4.02517 103.441C4.65561 103.441 4.99508 102.908 4.99508 102.375C4.99508 101.841 4.70411 101.356 4.02517 101.356H2.42481V103.393H4.02517V103.441Z" fill="#00DD00"/>
<path d="M14.8397 101.405H11.5905V102.568H14.5487V104.46H11.5905V105.818H14.9367V107.806H9.2627V99.5132H14.7912V101.405H14.8397Z" fill="#00DD00"/>
<path d="M16.1489 101.405V99.5132H22.7443V101.405H20.562V107.855H18.3312V101.453H16.1489V101.405Z" fill="#00DD00"/>
<path d="M31.8132 107.515V107.806H29.3399L27.8366 105.187H26.6242V107.806H24.2964V99.5132C25.6058 99.5132 26.9152 99.5132 28.2245 99.5132C30.3584 99.5132 31.4253 101.017 31.4253 102.471C31.4253 103.441 30.9888 104.314 30.1159 104.896L31.8132 107.515ZM28.176 103.441C28.8065 103.441 29.146 102.908 29.146 102.375C29.146 101.841 28.855 101.356 28.176 101.356H26.5757V103.393H28.176V103.441Z" fill="#00DD00"/>
<path d="M37.439 108C35.1112 108 32.8804 106.594 32.8804 103.684C32.8804 100.823 35.1597 99.3678 37.4875 99.3678C39.7668 99.3678 41.9976 100.823 41.9976 103.684C41.9976 106.206 40.1062 108 37.439 108ZM37.439 105.915C38.5544 105.915 39.6698 105.139 39.6698 103.635C39.6698 102.132 38.5544 101.356 37.439 101.356C36.2751 101.356 35.1597 102.084 35.1597 103.635C35.2082 105.187 36.2751 105.915 37.439 105.915Z" fill="#00DD00"/>
<path d="M51.5995 99.5132H52.4239V107.855H50.0961V104.023L48.2048 105.866H47.9623L46.071 104.023V107.855H43.7432V99.5132H44.5676L48.1078 103.102L51.5995 99.5132Z" fill="#00DD00"/>
<path d="M56.4976 106.788L56.0127 107.806H53.5879V107.515L57.6615 99.4163H58.7284L62.7536 107.515V107.806H60.3773L59.8438 106.788H56.4976ZM57.2251 104.993H59.0679L58.1465 103.005L57.2251 104.993Z" fill="#00DD00"/>
<path d="M67.991 99.4163C69.7368 99.4163 71.5797 100.241 72.0646 102.278H69.7853C69.3974 101.599 68.8154 101.356 67.991 101.356C66.5361 101.356 65.7602 102.423 65.7602 103.684C65.7602 105.09 66.6331 105.963 67.991 105.963C68.9124 105.963 69.4944 105.769 69.9308 104.945H68.0395V103.102H72.2101C72.2586 103.926 72.2586 104.702 71.9676 105.527C71.3372 107.273 69.6398 107.952 67.991 107.952C65.7117 107.952 63.4324 106.545 63.4324 103.684C63.3839 100.823 65.7117 99.4163 67.991 99.4163Z" fill="#00DD00"/>
<path d="M75.6051 106.788L75.1201 107.806H72.6953V107.515L76.769 99.4163H77.8359L81.861 107.515V107.806H79.4847L78.9513 106.788H75.6051ZM76.3325 104.993H78.1753L77.2539 103.005L76.3325 104.993Z" fill="#00DD00"/>
<path d="M89.2807 99.8527L85.6921 105.915H89.2807V107.855H82.2974V107.564L85.886 101.453H82.6368V99.5618H89.2807V99.8527Z" fill="#00DD00"/>
</svg>
