<svg width="48" height="48" viewBox="0 0 48 48" fill="none" xmlns="http://www.w3.org/2000/svg">
<g clip-path="url(#clip0)">
<path d="M12.0004 44.7845C22.9862 51.1272 37.0337 47.3631 43.3763 36.3774C49.7189 25.3916 45.9549 11.3441 34.9692 5.00146C23.9834 -1.34118 9.93591 2.42283 3.59326 13.4086C-2.74938 24.3944 1.01462 38.4419 12.0004 44.7845Z" fill="#0C78E4"/>
<path d="M15.0559 32.1427C16.0829 32.7356 16.7309 33.7984 16.7891 34.9858C16.7905 35.0151 16.8057 35.0421 16.8299 35.0586C16.8319 35.06 16.8339 35.0613 16.836 35.0624C16.8592 35.0758 16.8871 35.0787 16.9126 35.0701C18.295 34.607 19.8105 34.7586 21.0705 35.486C21.4998 35.7339 21.8782 36.0362 22.2043 36.378L22.8996 31.8275L17.7728 28.8675L14.1404 31.7764C14.4542 31.8526 14.7625 31.9733 15.0559 32.1427Z" fill="#D9EAFC"/>
<path d="M18.4412 29.2535L17.7729 28.8676L14.1404 31.7765C14.407 31.8413 14.669 31.9403 14.9219 32.0718L18.4412 29.2535Z" fill="#AEC1ED"/>
<path d="M11.2802 35.08C11.2711 35.1033 11.2716 35.1292 11.2817 35.1521C11.2897 35.1705 11.3034 35.1857 11.3205 35.1956C11.3248 35.198 11.3293 35.2002 11.3339 35.202C11.6503 35.3232 11.9549 35.4679 12.2391 35.6319C13.6273 36.4334 14.6505 37.7197 15.1202 39.2537C15.1274 39.2773 15.1431 39.296 15.163 39.3075C15.1829 39.319 15.207 39.3232 15.2309 39.3177C16.7943 38.9574 18.4198 39.2004 19.8081 40.0019C20.0922 40.1659 20.3698 40.3574 20.633 40.5708C20.637 40.574 20.641 40.5767 20.6452 40.5792C20.6624 40.5891 20.6824 40.5934 20.7023 40.5911C20.7272 40.5884 20.7499 40.5758 20.7655 40.5563C21.4986 39.6331 22.4308 38.8961 23.4829 38.3906C23.1156 37.1747 22.304 36.0902 21.1171 35.405C19.7793 34.6326 18.2404 34.5264 16.8826 34.9814C16.8251 33.8103 16.1935 32.6915 15.1025 32.0616C14.0561 31.4574 12.8313 31.4443 11.8126 31.9171C11.8561 32.9911 11.6794 34.0693 11.2802 35.08Z" fill="#AEC1ED"/>
<path d="M11.3681 35.1146C12.7784 31.5435 11.4004 27.3833 7.97551 25.4059C5.59786 24.0332 2.80274 24.0415 0.516645 25.1804C0.57332 29.4011 1.79427 33.5471 4.04641 37.1311C5.77892 34.9308 8.75933 34.1146 11.3681 35.1146Z" fill="#445EA0"/>
<path d="M8.17249 26.6382C9.91256 27.6429 11.1513 29.181 11.805 30.9262C11.4286 28.6883 10.0944 26.6293 7.97551 25.4059C5.59786 24.0332 2.80274 24.0415 0.516645 25.1804C0.521548 25.5444 0.535721 25.908 0.557886 26.2707C2.92249 25.1974 5.75198 25.2407 8.17249 26.6382Z" fill="#293D7C"/>
<path d="M30.7968 38.5821C27.3718 36.6047 23.08 37.4916 20.6925 40.4984C22.8629 42.2576 23.6463 45.2468 22.607 47.8474C26.8368 48.0058 31.038 46.9901 34.7215 44.9289C34.5648 42.3796 33.1744 39.9549 30.7968 38.5821Z" fill="#445EA0"/>
<path d="M31.2008 38.8319C31.0689 38.7449 30.934 38.661 30.7953 38.5809C27.3704 36.6035 23.0785 37.4903 20.691 40.4972C20.9223 40.6846 21.1368 40.8868 21.336 41.1002C23.8092 38.3843 27.7516 37.4517 31.2008 38.8319Z" fill="#293D7C"/>
<path d="M19.8545 39.9202C18.3918 39.0757 16.735 38.8743 15.2095 39.2258C14.7513 37.7288 13.7484 36.3948 12.2857 35.5503C9.48993 33.9361 5.98445 34.6669 4.04465 37.1314C5.97001 40.1956 8.64821 42.849 12.0003 44.7844C15.3524 46.7197 18.9895 47.7123 22.6058 47.8477C23.7702 44.9355 22.6503 41.5343 19.8545 39.9202Z" fill="#293D7C"/>
<path d="M13.048 36.9109C13.814 37.3531 14.4591 37.9242 14.9722 38.5806C14.4464 37.3494 13.5343 36.271 12.2857 35.5502C9.48993 33.936 5.98445 34.6667 4.04465 37.1313C4.27162 37.4925 4.50936 37.8477 4.75713 38.1969C6.82954 35.9212 10.2731 35.3088 13.048 36.9109Z" fill="#1A2B63"/>
<path d="M22.164 31.4029L20.9365 30.6942L20.3778 32.0237C20.2273 32.3817 20.3961 32.7939 20.7535 32.9443C21.1115 33.0947 21.5237 32.9265 21.6741 32.5685L22.164 31.4029Z" fill="#AEC1ED"/>
<path d="M18.506 29.291L16.7131 31.6528C16.4783 31.9621 16.5387 32.4032 16.848 32.638C16.8721 32.6562 16.8969 32.6727 16.9224 32.6874C17.2247 32.8618 17.6168 32.7883 17.8333 32.5031L19.7337 29.9997L18.5061 29.2909L18.506 29.291Z" fill="#AEC1ED"/>
<path d="M20.584 15.5018C20.9663 14.8397 21.3724 14.1937 21.7973 13.565C19.2087 13.5372 16.4481 15.2108 14.81 18.048C13.9449 19.5465 13.4924 21.1906 13.5015 22.8026C13.5023 22.954 13.5847 23.0879 13.7091 23.1597C13.7545 23.1859 13.8055 23.2039 13.8602 23.2113C15.0051 23.3675 16.1073 23.7444 17.1385 24.329C17.7684 21.3662 18.9493 18.3332 20.584 15.5018Z" fill="#FE3745"/>
<path d="M15.7305 18.5795C17.0835 16.2361 19.2023 14.6877 21.3574 14.235C21.5019 14.0098 21.6479 13.786 21.7973 13.565C19.2087 13.5372 16.4481 15.2108 14.81 18.048C13.9449 19.5465 13.4924 21.1906 13.5015 22.8026C13.5023 22.954 13.5847 23.0879 13.7091 23.1597C13.7545 23.1859 13.8055 23.2039 13.8602 23.2113C14.0489 23.237 14.2361 23.271 14.4223 23.3087C14.4181 21.7048 14.87 20.0701 15.7305 18.5795Z" fill="#B7092B"/>
<path d="M34.1396 20.6908C33.8075 21.3732 33.4511 22.0479 33.0689 22.7099C31.4342 25.5413 29.398 28.0805 27.147 30.1074C28.1689 30.7082 29.0464 31.4742 29.754 32.3876C29.7878 32.4313 29.829 32.4665 29.8744 32.4927C29.9988 32.5646 30.1559 32.5689 30.2874 32.494C31.688 31.6959 32.8856 30.4819 33.7507 28.9835C35.3888 26.1463 35.4579 22.9187 34.1396 20.6908Z" fill="#FE3745"/>
<path d="M18.4941 26.3556L17.4135 28.2273C17.2846 28.4506 17.3618 28.7388 17.5851 28.8677L22.9909 31.9887C23.2142 32.1176 23.5023 32.0404 23.6312 31.8172L24.7119 29.9454L18.4941 26.3556Z" fill="#FE3745"/>
<path d="M18.7948 29.0245L19.8754 27.1528L18.4946 26.3556L17.414 28.2273C17.2851 28.4506 17.3623 28.7388 17.5855 28.8677L18.9663 29.6649C18.7431 29.536 18.6659 29.2478 18.7948 29.0245Z" fill="#B7092B"/>
<path d="M36.7062 13.4001L26.8246 7.69497C24.4119 9.78263 22.2378 12.4451 20.5008 15.4537C18.6951 18.5813 17.4389 21.955 16.868 25.21C16.838 25.3817 16.9183 25.5538 17.0692 25.641L26.0422 30.8215C26.1932 30.9087 26.3825 30.8922 26.516 30.7803C29.0495 28.6584 31.3431 25.8836 33.1488 22.756C34.8859 19.7475 36.1046 16.5336 36.7062 13.4001Z" fill="#EEF6FF"/>
<path d="M18.0201 25.875C18.5909 22.62 19.8472 19.2463 21.6529 16.1187C23.3899 13.1102 25.564 10.4477 27.9767 8.36002L26.8261 7.6957C24.4133 9.78336 22.2393 12.4459 20.5023 15.4544C18.6966 18.582 17.4404 21.9558 16.8695 25.2107C16.8394 25.3824 16.9197 25.5546 17.0707 25.6417L18.2213 26.306C18.0703 26.2189 17.99 26.0467 18.0201 25.875Z" fill="#D9EAFC"/>
<path d="M29.4272 9.19763L28.6494 10.5449C28.5205 10.7682 28.5977 11.0563 28.821 11.1852L32.689 13.4184C32.9123 13.5473 33.2004 13.4701 33.3293 13.2469L34.1072 11.8996L29.4272 9.19763Z" fill="#EA2A3D"/>
<path d="M29.5699 11.0764L30.3478 9.7291L29.4272 9.19763L28.6494 10.5449C28.5205 10.7682 28.5977 11.0563 28.821 11.1852L29.7415 11.7167C29.5182 11.5878 29.441 11.2996 29.5699 11.0764Z" fill="#B7092B"/>
<path d="M36.0002 3.21528C35.9201 3.16901 35.8246 3.14951 35.7279 3.16479C33.0664 3.58634 30.2524 4.93219 27.5906 7.05701C27.3074 7.28312 27.0278 7.51898 26.7507 7.76053L36.6886 13.4982C36.7593 13.1375 36.8237 12.7774 36.878 12.4191C37.3872 9.05142 37.1458 5.94162 36.18 3.42583C36.145 3.33447 36.0804 3.26154 36.0002 3.21528Z" fill="#FE3745"/>
<path d="M36.3586 3.92318C36.302 3.7551 36.2427 3.58912 36.1801 3.42588C36.145 3.33448 36.0804 3.26155 36.0002 3.21528C35.9201 3.16901 35.8246 3.14951 35.7279 3.16479C33.0664 3.58634 30.2524 4.93219 27.5906 7.05701C27.3074 7.28312 27.0278 7.51898 26.7507 7.76053L27.9013 8.42485C28.1784 8.18329 28.458 7.94743 28.7412 7.72132C31.2305 5.73436 33.8524 4.42899 36.3586 3.92318Z" fill="#B7092B"/>
<path d="M25.1268 22.0468C27.4145 23.3676 30.3398 22.5838 31.6607 20.296C32.9815 18.0083 32.1976 15.083 29.9099 13.7622C27.6222 12.4413 24.6968 13.2252 23.376 15.5129C22.0552 17.8006 22.839 20.726 25.1268 22.0468Z" fill="#445EA0"/>
<path d="M25.9859 20.563C27.4535 21.4103 29.3302 20.9075 30.1776 19.4398C31.0249 17.9722 30.5221 16.0955 29.0544 15.2481C27.5867 14.4008 25.7101 14.9036 24.8627 16.3713C24.0154 17.8389 24.5182 19.7156 25.9859 20.563Z" fill="#69CDFF"/>
<path d="M25.8369 16.934C25.0856 18.2352 25.3963 19.8574 26.4991 20.7992C26.3242 20.7373 26.1523 20.6594 25.9858 20.5633C24.5181 19.7159 24.0153 17.8392 24.8627 16.3715C25.7101 14.9039 27.5867 14.401 29.0544 15.2484C29.2208 15.3445 29.3742 15.4545 29.5154 15.5749C28.1482 15.0908 26.5882 15.6328 25.8369 16.934Z" fill="#52BBEF"/>
<path d="M15.7799 10.89C15.6867 10.8362 15.6352 10.7316 15.6492 10.625C15.8278 9.26893 15.6865 8.74189 14.8538 7.65678C14.7884 7.57145 14.7808 7.45516 14.8346 7.36203C14.8883 7.26891 14.9929 7.21735 15.0995 7.23135C16.4557 7.40977 16.9827 7.26849 18.0678 6.43591C18.1531 6.37042 18.2695 6.36279 18.3626 6.41656C18.4557 6.47032 18.5073 6.57489 18.4932 6.68153C18.3148 8.03756 18.4561 8.56468 19.2886 9.64995C19.3541 9.73528 19.3617 9.85163 19.308 9.94475C19.2542 10.0379 19.1496 10.0895 19.043 10.0754C17.687 9.89677 17.1599 10.038 16.0747 10.8706C15.9893 10.9361 15.873 10.9437 15.7799 10.89Z" fill="#FFD00D"/>
<path d="M16.3755 10.4303C16.554 9.07427 16.4127 8.54723 15.5801 7.46212C15.5389 7.40857 15.5207 7.34268 15.5261 7.27802C15.3927 7.26657 15.2521 7.25124 15.0997 7.23122C14.993 7.21717 14.8886 7.26878 14.8348 7.3619C14.781 7.45503 14.7886 7.57145 14.8541 7.65665C15.6867 8.74176 15.828 9.2688 15.6495 10.6249C15.6354 10.7315 15.687 10.8361 15.7801 10.8898C15.8732 10.9436 15.9896 10.936 16.0749 10.8705C16.1968 10.7769 16.3109 10.6934 16.4207 10.6168C16.3838 10.5635 16.3666 10.4973 16.3755 10.4303Z" fill="#FFAF10"/>
<path d="M39.1817 26.8547C39.0999 26.8075 39.0545 26.7156 39.0669 26.6218C39.2238 25.4298 39.0996 24.9666 38.3677 24.0128C38.3102 23.9379 38.3035 23.8355 38.3507 23.7537C38.398 23.6718 38.4899 23.6265 38.5836 23.6389C39.7757 23.7957 40.239 23.6715 41.1927 22.9397C41.2678 22.8821 41.37 22.8754 41.4519 22.9227C41.5337 22.9699 41.579 23.0618 41.5667 23.1556C41.4098 24.3476 41.534 24.8108 42.2659 25.7648C42.3234 25.8398 42.3301 25.942 42.2828 26.0239C42.2356 26.1057 42.1437 26.1511 42.0499 26.1387C40.858 25.9818 40.3947 26.1058 39.4408 26.8377C39.3659 26.8952 39.2636 26.902 39.1817 26.8547Z" fill="white"/>
<path d="M39.7052 26.4509C39.862 25.2589 39.7379 24.7956 39.006 23.8417C38.9698 23.7947 38.9538 23.7368 38.9586 23.6799C38.8413 23.6698 38.7177 23.6563 38.5837 23.6388C38.49 23.6265 38.3981 23.6717 38.3508 23.7536C38.3036 23.8354 38.3102 23.9377 38.3678 24.0127C39.0998 24.9666 39.2239 25.4298 39.067 26.6217C39.0546 26.7155 39.1 26.8074 39.1818 26.8546C39.2636 26.9019 39.3659 26.8952 39.4409 26.8376C39.5481 26.7554 39.6484 26.6819 39.745 26.6146C39.7125 26.5679 39.6975 26.5097 39.7052 26.4509Z" fill="#D9EAFC"/>
<path d="M42.0084 17.084C41.913 17.0289 41.8602 16.9218 41.8745 16.8126C42.0574 15.4237 41.9128 14.8839 41.0598 13.7726C40.9928 13.6853 40.9851 13.5661 41.0401 13.4707C41.0952 13.3753 41.2023 13.3226 41.3114 13.3368C42.7005 13.5196 43.2403 13.375 44.3516 12.5222C44.439 12.4552 44.5582 12.4473 44.6536 12.5024C44.749 12.5575 44.8018 12.6646 44.7874 12.7739C44.6046 14.1628 44.7492 14.7026 45.6021 15.814C45.6691 15.9014 45.6769 16.0205 45.6217 16.1159C45.5667 16.2113 45.4595 16.2641 45.3504 16.2497C43.9615 16.0667 43.4218 16.2115 42.3102 17.0642C42.2229 17.1313 42.1038 17.1391 42.0084 17.084Z" fill="#FF9518"/>
<path d="M42.6183 16.6135C42.801 15.2246 42.6564 14.6848 41.8035 13.5734C41.7614 13.5186 41.7428 13.4511 41.7483 13.3849C41.6117 13.3732 41.4676 13.3575 41.3115 13.3369C41.2023 13.3225 41.0953 13.3753 41.0402 13.4708C40.9851 13.5661 40.9929 13.6853 41.0599 13.7726C41.9128 14.884 42.0575 15.4238 41.8745 16.8127C41.8602 16.9218 41.913 17.029 42.0084 17.084C42.1038 17.1391 42.223 17.1313 42.3104 17.0643C42.4353 16.9684 42.5522 16.8828 42.6646 16.8044C42.6267 16.7498 42.6092 16.6821 42.6183 16.6135Z" fill="#EF8318"/>
</g>
<defs>
<clipPath id="clip0">
<rect width="48" height="48" fill="white"/>
</clipPath>
</defs>
</svg>